<?xml version="1.0" encoding="UTF-8" standalone="no"?><!-- Generator: Gravit.io --><svg xmlns="http://www.w3.org/2000/svg" xmlns:xlink="http://www.w3.org/1999/xlink" style="isolation:isolate" viewBox="0 0 396.8 73.5" width="396.8pt" height="73.5pt"><defs><clipPath id="_clipPath_XdmbW0EsQwU6aSrC7AIv8EUaStb8O5k1"><rect width="396.8" height="73.5"/></clipPath></defs><g clip-path="url(#_clipPath_XdmbW0EsQwU6aSrC7AIv8EUaStb8O5k1)"><clipPath id="_clipPath_5I76GCug3TXahDror1bWH14hcA8c1YLC"><rect x="0" y="0" width="393.7" height="70.636" transform="matrix(1,0,0,1,0,0)" fill="rgb(255,255,255)"/></clipPath><g clip-path="url(#_clipPath_5I76GCug3TXahDror1bWH14hcA8c1YLC)"><g><path d=" M 0.139 20.484 L 0.146 20.606 L 0.691 21.549 L 0.639 22.885 L 0.651 23.127 L 0.918 23.477 Q 1.349 23.455 1.86 22.579 L 2.106 22.566 L 2.237 22.681 L 2.015 23.178 L 2.288 23.649 L 2.295 23.77 L 1.546 23.685 Q 0.212 24.119 0.231 24.482 L 0.238 24.603 L 0.796 25.789 C 3.401 25.734 5.995 25.438 8.543 24.904 L 8.692 25.382 L 11.03 25.141 L 20.789 24.882 C 22.857 24.879 24.901 24.442 26.783 23.602 L 26.906 23.595 L 26.698 24.335 L 26.705 24.456 L 27.439 24.297 L 33.987 24.081 L 34.234 24.068 C 35.477 24.021 36.67 23.576 37.63 22.8 L 36.966 21.863 L 37.816 21.576 C 38.175 21.948 38.682 22.144 39.203 22.112 L 39.112 22.724 L 39.157 23.572 L 39.417 23.801 L 39.783 23.782 C 40.33 23.779 40.871 23.669 41.375 23.458 L 42.128 23.662 L 42.121 23.541 L 42.238 23.413 L 42.212 22.928 Q 42.141 21.6 41.648 21.625 C 41.987 21.072 42.126 20.423 42.044 19.783 L 41.732 18.584 L 41.122 18.737 L 36.862 20.05 L 36.616 20.062 L 36.824 19.323 Q 36.793 18.748 23.948 19.136 L 21.354 19.269 C 16.93 19.441 12.53 19.993 8.204 20.92 L 8.665 20.289 L 8.652 20.047 L 0.139 20.484 Z  M 9.724 21.57 L 11.646 20.501 C 11.644 20.898 11.796 21.282 12.074 21.572 L 12.107 22.177 L 11.613 22.203 L 10.399 22.63 L 9.737 21.814 L 9.724 21.57 Z  M 19.743 21.54 L 19.977 21.286 L 20.344 21.267 C 21.005 21.289 21.649 21.464 22.228 21.777 L 22.007 22.273 L 22.266 22.503 L 22.877 22.35 L 22.902 22.835 L 22.292 22.988 L 21.676 23.019 L 21.688 23.261 L 21.319 23.28 L 19.743 21.54 Z  M 7.432 22.659 L 8.536 22.481 L 8.561 22.965 C 8.366 23.375 7.944 23.634 7.483 23.628 L 7.574 23.016 L 7.432 22.659 Z  M 32.112 26.127 C 31.648 26.109 31.22 26.373 31.034 26.79 L 31.04 26.911 L 32.394 26.841 Q 33.349 26.792 33.53 27.269 L 33.186 27.772 L 33.193 27.893 Q 33.251 28.983 35.114 29.126 L 35.965 28.84 C 35.897 28.038 35.644 27.262 35.225 26.571 L 34.615 26.723 L 32.112 26.127 Z  M 9.784 27.397 Q 7.409 27.52 7.231 30.564 L 7.244 30.806 L 7.718 30.418 L 7.965 30.405 L 7.978 30.647 C 7.649 30.649 7.36 30.861 7.264 31.17 Q 7.277 31.412 8.016 31.374 L 8.023 31.494 Q 8.031 31.646 6.938 32.036 L 6.945 32.157 C 7.512 32.164 8.07 32.302 8.574 32.559 Q 10.511 34.645 10.788 34.631 L 11.035 34.618 C 11.405 34.173 11.906 33.85 12.47 33.694 L 12.483 33.937 Q 12.406 35.398 11.449 35.448 L 10.949 35.352 C 9.827 35.223 9.009 34.246 9.097 33.14 L 7.994 33.197 C 7.72 33.172 7.45 33.276 7.266 33.477 C 7.082 33.677 7.005 33.952 7.058 34.216 C 7.616 34.754 7.96 35.469 8.033 36.232 C 7.485 36.586 7.183 37.21 7.253 37.851 L 7.336 39.425 Q 7.356 39.788 8.96 39.705 L 9.946 39.655 C 10.823 39.608 11.689 39.441 12.518 39.158 C 12.047 39.878 11.217 40.292 10.348 40.242 L 10.226 40.248 C 9.288 40.281 8.353 40.122 7.48 39.782 L 7.363 39.91 L 7.544 40.995 L 7.866 49.357 Q 8.357 53.34 8.82 53.315 L 9.794 53.02 C 9.824 53.411 9.973 53.785 10.223 54.092 Q 11.967 54.275 11.991 54.73 L 12.01 55.093 L 11.659 55.475 L 9.911 55.2 Q 9.421 55.286 9.436 55.589 L 9.443 55.711 Q 10.764 58.435 11.196 58.413 L 11.443 58.401 C 11.887 57.936 12.488 57.646 13.133 57.585 L 13.504 57.566 L 18.1 57.936 L 18.834 57.778 L 19.366 58.478 L 19.379 58.721 L 19.262 58.848 L 18.879 58.625 Q 15.772 58.33 15.751 57.936 L 14.529 58.242 L 13.787 58.279 L 12.42 58.107 L 11.712 58.75 Q 15.383 62.694 21.922 62.358 Q 25.278 62.064 25.844 61.671 C 27.831 61.664 29.793 61.231 31.592 60.403 Q 37.979 57.16 37.439 44.8 L 37.219 40.681 Q 37.148 39.353 36.161 39.403 C 36.772 38.732 37.042 37.825 36.895 36.937 C 36.831 35.958 36.655 34.989 36.371 34.049 L 35.63 34.087 L 35.636 34.208 L 36.032 34.674 L 36.039 34.794 L 34.685 34.865 L 34.425 34.635 Q 34.59 34.232 36.335 33.322 L 36.328 33.201 L 36.199 33.086 L 36.725 31.356 L 36.459 31.006 L 36.335 31.012 L 36.218 31.139 Q 36.238 31.502 35.991 31.516 L 35.748 31.528 C 35.398 31.355 35.121 31.069 34.962 30.719 L 34.95 30.48 L 36.08 30.786 Q 36.265 30.776 36.521 29.793 Q 36.496 29.308 34.645 29.403 L 32.061 29.657 Q 31.69 29.676 31.704 29.919 L 31.71 30.039 Q 31.72 30.221 32.736 30.715 L 32.385 31.097 L 30.468 30.098 L 30.832 29.957 L 30.176 29.263 L 30.41 29.011 Q 30.443 29.617 30.689 29.604 L 31.059 29.585 Q 31.553 29.559 32.235 28.431 L 31.976 28.202 L 30.865 28.259 Q 29.272 28.553 29.293 28.946 L 29.377 30.521 Q 29.39 30.763 29.883 30.738 Q 31.644 31.862 32.416 31.823 L 32.538 31.816 Q 32.785 31.803 32.87 31.071 L 32.993 31.064 Q 33.014 31.457 33.785 31.996 L 30.87 32.995 L 29.623 32.817 L 29.506 32.944 L 29.557 36.221 Q 29.66 38.159 30.562 38.84 L 30.439 38.847 C 30.201 38.828 29.967 38.919 29.808 39.093 C 29.648 39.268 29.58 39.506 29.626 39.736 L 29.911 40.45 Q 31.071 41.392 31.101 41.968 L 31.108 42.089 L 30.992 42.216 L 30.109 41.897 L 29.985 41.903 L 29.869 42.031 L 30.206 43.716 L 30.179 50.158 L 30.257 51.611 L 30.418 52.331 L 30.425 52.453 L 29.796 52.243 Q 29.549 52.255 29.393 53.966 C 29.431 54.28 29.578 54.572 29.808 54.794 Q 26.622 55.383 26.658 56.05 L 26.665 56.171 C 27.845 56.221 29.016 56.402 30.155 56.711 L 30.161 56.832 Q 29.205 56.881 28.946 57.259 L 28.31 56.927 C 27.702 57.043 27.125 57.279 26.613 57.622 L 26.607 57.5 Q 26.595 57.288 27.444 56.972 L 27.437 56.85 C 26.942 56.769 26.47 56.587 26.052 56.315 L 25.686 56.334 L 25.698 56.575 Q 26.195 56.611 26.211 56.913 L 26.23 57.277 L 25.867 57.417 L 25.491 57.315 L 25.484 57.194 L 25.601 57.066 L 25.575 56.582 L 25.445 56.468 L 24.218 56.652 Q 18.295 56.957 16.419 54.26 L 15.271 51.284 C 14.852 51.394 14.477 51.625 14.193 51.946 L 14.065 51.953 L 14.052 51.711 Q 14.177 51.219 15.137 51.169 L 14.924 47.173 C 14.921 46.635 14.808 46.104 14.592 45.611 Q 14.839 45.598 14.794 44.75 L 14.768 44.266 C 14.661 43.525 14.272 42.852 13.678 42.382 Q 14.913 42.319 14.79 40.018 L 14.239 36.646 L 14.324 35.909 L 14.195 35.794 C 13.637 35.883 13.101 36.075 12.617 36.361 L 12.357 36.132 Q 12.317 35.375 13.633 34.608 L 14.379 34.691 C 14.576 34.016 14.664 33.315 14.639 32.614 L 14.594 31.764 Q 13.581 27.201 9.912 27.39 L 9.784 27.397 Z  M 30.797 27.045 C 30.277 27.062 29.813 27.368 29.601 27.835 L 29.621 28.198 L 29.868 28.185 C 30.372 28.233 30.851 27.965 31.069 27.516 L 31.063 27.395 L 30.797 27.045 Z  M 30.879 35.542 Q 30.834 34.695 32.296 34.255 Q 33.251 34.205 33.432 34.681 Q 32.569 34.726 32.595 35.211 L 32.601 35.331 L 31.849 35.127 C 31.622 35.353 31.324 35.497 31.004 35.535 L 30.879 35.542 Z  M 34.269 36.461 C 34.511 36.035 34.974 35.777 35.471 35.792 L 36.094 35.882 L 36.107 36.124 L 35.99 36.251 L 35.73 36.022 C 35.486 36.307 35.145 36.496 34.77 36.557 L 34.4 36.576 L 34.269 36.461 Z  M 7.92 43.403 L 8.166 43.39 C 8.923 43.297 9.651 43.705 9.954 44.392 L 9.869 45.124 L 9.253 45.156 C 8.559 44.802 8.068 44.157 7.92 43.403 Z  M 34.821 44.448 L 34.944 44.441 L 35.061 44.314 L 36.295 44.25 L 36.425 44.365 C 36.379 44.607 36.198 44.804 35.957 44.875 Q 34.848 44.932 34.822 44.448 L 34.821 44.448 Z  M 14.131 46.12 L 14.377 46.107 L 14.384 46.229 L 14.137 46.241 L 14.131 46.12 Z  M 2.902 65.28 L 2.785 65.407 L 2.92 70.259 L 2.927 70.38 L 3.186 70.609 L 28.604 69.301 Q 29.946 67.775 30.378 67.752 Q 31.002 67.869 31.013 68.084 L 29.454 69.014 L 29.467 69.257 L 44.518 68.483 L 44.329 67.277 L 44.376 63.51 Q 44.357 63.147 44.11 63.159 L 33.253 63.718 L 33.551 64.675 L 33.09 65.306 L 33.103 65.547 L 33.597 65.522 L 34.727 65.828 L 34.746 66.191 L 35.05 67.267 L 35.056 67.388 C 33.554 67.509 32.042 67.382 30.583 67.011 L 30.57 66.769 Q 32.377 65.858 32.336 65.101 L 32.33 64.98 L 30.726 65.063 L 30.714 64.821 Q 32.061 64.63 32.022 63.904 L 31.896 63.91 L 31.766 63.795 L 9.564 64.937 L 9.448 65.065 Q 9.48 65.67 9.234 65.683 L 9.116 65.81 Q 9.07 64.963 7.341 65.052 L 3.523 65.37 L 2.902 65.28 Z  M 9.05 69.214 L 9.414 69.074 L 10.667 69.374 Q 10.619 69.619 10.076 69.89 L 9.063 69.457 L 9.05 69.214 Z  M 33.297 18.778 L 33.063 19.033 L 33.322 23.878 L 33.582 24.108 L 70.594 22.203 Q 70.934 22.186 70.997 20.48 L 70.693 17.093 L 70.433 16.863 L 33.297 18.778 Z  M 53.31 20.542 L 54.278 20.128 Q 54.305 20.645 55.31 20.924 L 55.316 21.045 Q 53.836 21.122 53.868 21.727 L 53.499 21.746 L 53.576 20.892 L 53.31 20.542 Z  M 43.081 25.927 L 41.983 26.226 Q 39.467 27.752 39.774 33.505 L 39.839 34.717 L 40.733 44.508 L 40.978 53.726 Q 41.596 59.524 42.028 59.502 Q 42.89 61.16 46.683 60.965 L 47.546 60.92 L 54.69 60.31 L 59.755 60.171 L 63.937 59.713 Q 66.651 59.573 66.535 57.393 L 66.496 56.666 Q 65.805 54.152 64.51 54.219 C 64.283 54.444 63.985 54.588 63.665 54.626 L 63.418 54.639 L 62.64 53.95 L 59.445 54.358 L 48.452 54.68 L 47.598 38.69 L 47.469 38.575 Q 46.852 38.607 46.839 38.364 L 46.71 38.25 L 46.632 36.796 L 46.347 36.082 L 46.717 36.064 L 46.846 36.178 Q 46.866 36.541 47.113 36.529 L 47.359 36.516 L 47.476 36.388 L 47.302 30.81 C 47.243 29.534 46.967 28.276 46.485 27.088 Q 45.828 25.789 43.823 25.892 L 43.081 25.927 Z  M 72.826 61.682 L 35.566 63.599 L 35.45 63.726 Q 35.657 65.294 36.04 65.518 C 35.736 65.858 35.582 66.303 35.611 66.754 L 35.715 68.693 L 35.974 68.922 L 73.111 67.012 L 73.344 66.757 L 73.086 61.912 L 72.826 61.682 Z  M 77.213 16.398 L 60.804 17.242 L 60.687 17.369 L 60.966 20.27 L 60.965 22.577 L 61.095 22.693 L 61.212 22.565 L 67.017 22.387 L 68.985 22.165 L 68.971 21.919 Q 68.218 21.715 68.206 21.473 L 68.186 21.11 Q 70.058 21.408 70.595 22.2 L 71.452 22.035 L 86.504 21.261 L 101.563 20.607 L 101.556 20.486 L 101.673 20.359 L 101.402 15.272 L 100.425 15.563 L 96.951 15.378 L 96.334 15.409 C 95.898 15.445 95.479 15.592 95.119 15.836 L 95.541 16.787 L 95.554 17.028 Q 94.845 17.065 93.996 15.651 L 85.23 15.981 C 84.366 16.004 83.524 16.257 82.795 16.713 C 82.4 16.318 81.842 16.123 81.281 16.184 L 80.421 16.228 Q 77.728 16.761 77.759 17.337 L 77.635 17.343 Q 77.46 16.385 77.213 16.398 Z  M 68.257 17.83 L 69.381 18.015 L 69.388 18.136 L 68.931 18.886 L 68.684 18.899 Q 68.407 18.913 68.276 18.191 L 68.257 17.83 Z  M 62.661 19.579 L 63.759 19.279 L 63.804 20.127 L 62.939 20.172 L 62.68 19.942 L 62.661 19.579 Z  M 89.986 19.266 L 91.287 18.228 L 91.566 18.821 C 91.255 19.234 90.767 19.482 90.245 19.496 L 89.986 19.266 Z  M 93.101 19.713 L 94.68 19.146 L 94.725 19.994 L 94.231 20.019 L 92.865 19.846 Q 92.495 19.866 92.533 20.592 L 92.286 20.605 L 92.157 20.49 L 92.359 19.63 L 92.981 19.719 L 93.101 19.713 Z  M 75.51 21.581 Q 76.112 20.7 76.576 20.676 L 77.082 20.892 Q 77.114 21.498 76.003 21.555 L 75.51 21.581 Z  M 87.853 23.374 L 84.035 23.692 L 82.431 23.775 L 80.957 23.972 L 80.951 23.851 L 80.583 23.87 Q 80.64 24.93 79.414 25.145 L 79.135 24.552 L 76.733 25.893 L 76.609 25.899 L 76.713 25.529 Q 76.697 25.227 75.675 24.612 L 75.902 24.235 L 75.896 24.115 L 75.777 24.244 L 70.958 24.371 C 69.83 24.434 68.717 24.655 67.653 25.026 Q 66.7 25.713 66.795 27.499 L 66.821 27.984 Q 66.884 28.588 67.1 28.576 Q 67.179 30.06 71.509 30.052 L 73.113 29.97 Q 77.369 29.751 78.204 30.315 L 78.74 42.675 C 78.898 44.421 79.197 46.153 79.634 47.852 C 79.323 48.676 79.16 49.547 79.154 50.427 C 79.193 51.356 79.647 52.221 80.394 52.793 L 79.9 52.819 Q 79.16 52.857 79.212 53.826 L 79.25 54.553 Q 79.436 58.035 83.191 58.844 L 83.684 58.818 C 84.611 58.659 85.432 58.135 85.958 57.369 L 85.698 57.14 L 85.081 57.171 L 83.51 57.859 L 83.386 57.866 L 83.847 57.234 Q 83.833 56.962 83.211 56.903 L 83.205 56.782 L 83.574 56.763 L 86.302 56.865 Q 86.919 56.833 86.822 55.017 C 86.75 54.542 86.556 54.093 86.257 53.713 Q 86.627 53.695 86.614 53.452 L 86.537 51.999 L 86.407 51.884 L 85.309 52.183 C 84.985 52.203 84.681 52.026 84.543 51.737 L 84.537 51.618 L 84.66 51.611 L 84.79 51.727 L 84.913 51.72 L 86.489 51.147 L 85.338 29.59 L 85.468 29.705 L 88.039 29.209 Q 89.181 29.15 89.302 27.441 C 90.245 27.898 91.267 28.175 92.315 28.258 L 92.322 28.379 Q 91.366 28.428 91.237 28.92 L 91.243 29.041 L 91.503 29.271 L 92.366 29.226 Q 94.83 29.039 94.802 28.494 L 94.794 28.364 L 94.055 28.401 L 93.198 28.567 L 93.191 28.446 L 92.945 28.459 L 92.932 28.216 L 93.542 28.064 L 95.418 28.453 C 96.219 27.802 96.706 26.852 96.763 25.833 L 96.744 25.47 Q 96.612 22.93 87.852 23.38 L 87.853 23.374 Z  M 83.295 26.038 Q 83.23 24.826 85.782 23.966 Q 84.827 26.931 83.593 26.994 L 83.223 27.014 L 83.217 26.892 L 83.58 26.752 L 83.295 26.038 Z  M 79.6 26.349 Q 79.589 26.138 80.197 25.954 L 81.57 26.248 Q 81.602 26.853 80.491 26.91 L 80.249 26.923 L 80.34 26.311 L 79.6 26.349 Z  M 91.879 26.932 C 92.202 26.438 92.724 26.103 93.314 26.008 L 93.691 26.111 Q 92.848 27.126 92.389 27.15 L 91.879 26.932 Z  M 74.307 29.178 Q 74.791 27.821 75.84 27.767 Q 76.408 27.981 76.482 28.219 L 76.495 28.462 L 75.756 28.5 C 75.399 28.856 74.936 29.092 74.435 29.174 L 74.307 29.178 Z  M 80.901 29.811 Q 81.764 29.767 81.802 30.493 L 81.589 31.111 L 81.718 31.226 Q 83.832 31.421 83.861 31.966 L 83.627 32.22 C 82.921 31.661 82.016 31.402 81.114 31.5 L 81.342 31.124 L 80.907 29.932 L 80.901 29.811 Z  M 80.822 32.974 L 80.946 32.967 L 83.095 33.828 Q 83.046 34.074 82.504 34.344 L 81.134 34.174 L 81.225 33.563 L 81.212 33.32 Q 81.199 33.079 80.829 33.097 L 80.822 32.974 Z  M 81.094 35.753 L 82.856 36.269 L 82.863 36.39 L 81.641 36.696 L 81.518 36.702 L 81.512 36.58 L 81.758 36.568 L 81.745 36.326 Q 81.726 35.962 80.986 36.001 L 80.979 35.88 L 81.094 35.753 Z  M 81.684 37.544 L 82.055 37.525 L 84.201 38.384 L 84.227 38.869 L 84.111 38.996 L 83.111 38.804 L 82.877 39.059 C 82.236 38.862 81.772 38.316 81.689 37.663 L 81.684 37.544 Z  M 81.144 45.951 L 81.76 45.92 Q 82.522 46.853 82.8 46.839 L 82.449 47.221 C 81.919 47.218 81.399 47.077 80.943 46.813 L 81.144 45.951 Z  M 83.254 48.393 L 84.495 48.451 L 84.273 48.948 L 83.033 48.89 L 83.254 48.393 Z  M 80.653 50.592 L 81.004 50.21 L 83.101 50.102 L 83.12 50.465 Q 81.639 50.541 81.671 51.146 C 81.457 50.795 81.067 50.584 80.65 50.592 L 80.653 50.592 Z  M 76.402 61.376 L 63.454 62.164 Q 63.084 62.184 63.097 62.425 L 63.149 63.394 C 63.183 64.183 63.485 64.936 64.005 65.537 Q 63.265 65.575 63.284 65.938 L 63.355 67.267 L 63.608 67.5 L 64.719 67.443 Q 71.474 67.096 75.686 66.636 L 79.033 66.706 Q 79.246 65.481 79.461 65.47 L 79.708 65.457 L 79.714 65.578 L 79.488 65.954 L 79.513 66.439 L 79.773 66.669 L 81.254 66.593 Q 82.484 66.529 82.439 65.682 C 82.963 66.04 83.571 66.259 84.207 66.319 C 84.672 66.317 85.071 65.991 85.156 65.542 L 85.545 65.886 L 85.318 66.262 L 85.324 66.383 L 103.831 65.431 L 104.064 65.176 L 104.026 64.449 C 104.027 63.964 103.702 63.535 103.227 63.397 L 103.812 62.76 L 103.623 61.555 L 103.682 60.338 Q 96.63 60.336 90.215 60.666 C 87.358 60.726 84.516 61.075 81.734 61.709 C 79.967 61.464 78.182 61.353 76.397 61.377 L 76.402 61.376 Z  M 79.643 61.817 Q 81.656 62.442 81.675 62.806 L 81.681 62.927 L 81.553 62.933 L 80.547 62.621 L 80.196 63.003 Q 79.854 62.964 79.65 62.06 L 79.643 61.817 Z  M 75.527 63.607 Q 75.503 63.153 76.716 62.697 L 76.839 62.691 C 76.677 63.132 76.399 63.524 76.033 63.826 L 75.91 63.832 L 75.527 63.607 Z  M 68.39 64.339 L 68.514 64.333 L 68.682 65.174 L 68.695 65.416 L 68.324 65.435 Q 67.799 64.855 67.428 64.875 L 67.422 64.753 L 67.545 64.747 L 68.045 64.843 Q 68.416 64.824 68.39 64.34 L 68.39 64.339 Z  M 76.247 65.518 L 76.597 65.135 L 76.844 65.123 Q 78.198 65.053 78.216 65.416 L 78.223 65.538 Q 78.235 65.749 77.626 65.932 Q 76.261 65.786 76.247 65.518 Z  M 93.06 15.465 L 92.878 16.689 L 92.631 16.702 L 92.501 16.587 Q 92.326 15.624 92.079 15.637 L 91.71 15.656 L 91.593 15.783 C 91.604 16.437 91.722 17.085 91.942 17.702 L 93.277 17.269 L 93.796 17.728 L 93.802 17.849 L 92.582 18.155 L 91.835 18.072 L 91.984 20.857 L 100.133 20.56 Q 101.946 20.345 102.178 19.483 Q 102.425 19.47 102.97 20.414 L 104.075 20.236 L 122.587 19.405 C 125.227 19.22 127.853 18.882 130.451 18.393 L 130.854 18.98 L 133.191 18.738 Q 133.808 18.706 133.736 17.377 L 133.691 16.53 Q 132.684 13.302 130.68 13.405 L 129.816 13.45 C 129.114 13.573 128.451 13.857 127.881 14.277 Q 127.856 13.824 125.874 13.774 L 117.122 14.346 Q 116.058 15.858 115.595 15.882 L 115.888 14.409 L 109.345 14.745 L 93.06 15.465 Z  M 119.76 17.371 Q 119.876 16.636 120.091 16.625 Q 120.813 17.437 121.37 17.409 L 121.383 17.651 L 121.267 17.779 C 120.736 17.774 120.217 17.632 119.76 17.366 L 119.76 17.371 Z  M 116.696 17.892 L 118.076 18.307 L 119.056 18.135 L 119.342 18.848 L 119.108 19.103 L 118.985 19.11 Q 118.946 18.383 118.699 18.396 L 117.359 18.708 L 116.742 18.74 L 116.696 17.892 Z  M 108.124 21.852 C 106.514 21.903 104.91 22.067 103.324 22.341 Q 99.406 22.543 99.115 26.93 L 99.153 27.657 C 99.229 28.265 99.473 28.842 99.86 29.323 C 99.466 29.715 99.269 30.259 99.322 30.808 Q 99.61 32.736 99.918 32.721 Q 100.759 32.253 100.75 32.071 Q 100.722 31.554 99.821 30.904 L 99.803 30.541 C 100.242 30.522 100.665 30.374 101.017 30.114 L 101.14 30.107 Q 101.205 31.319 102.315 31.262 L 101.013 32.301 L 101.02 32.422 L 101.286 32.773 L 101.643 32.512 L 101.766 32.505 L 102.059 33.34 L 102.065 33.461 L 99.695 33.097 L 99.481 33.715 L 100.135 41.333 L 100.057 42.187 Q 101.175 42.281 101.187 42.493 Q 100.091 42.823 100.102 43.034 L 100.303 46.789 L 100.64 48.475 Q 100.393 48.487 100.334 49.705 L 100.62 50.419 L 101.107 50.272 Q 102.232 50.488 102.25 50.82 L 102.269 51.184 L 101.906 51.324 L 100.775 51.018 L 100.542 51.273 L 100.513 53.091 Q 100.681 53.932 100.928 53.919 C 101.288 53.363 101.835 52.948 102.474 52.746 L 102.85 52.848 L 102.857 52.969 L 100.694 54.174 Q 100.815 56.445 102.337 57.125 L 103.285 56.348 L 103.409 56.341 L 103.428 56.704 Q 102.572 56.896 102.59 57.233 Q 102.608 57.57 103.604 57.667 L 104.454 57.38 C 105.196 56.634 106.173 56.156 107.227 56.023 C 107.168 55.413 107.412 54.812 107.883 54.41 Q 107.865 54.077 106.752 54.104 L 105.447 52.838 L 105.325 52.845 Q 105.346 53.238 104.74 53.482 L 104.733 53.361 L 104.604 53.246 C 105.168 52.794 105.826 52.47 106.532 52.297 L 106.383 51.819 Q 106.695 50.709 107.188 50.684 L 107.688 50.78 L 107.812 50.774 L 107.78 50.168 L 107.215 44.246 L 107.378 42.659 Q 107.34 41.932 109.437 41.824 C 110.743 41.838 112.03 42.146 113.196 42.725 Q 116.996 44.958 117.521 44.931 L 117.54 45.294 L 117.417 45.3 L 116.67 45.217 L 116.547 45.223 L 116.43 45.351 L 116.443 45.593 Q 119.877 49.667 119.897 50.031 L 121.475 49.464 L 121.845 49.445 Q 120.643 50.114 120.688 50.961 L 120.701 51.204 C 120.693 52.257 121.484 53.153 122.547 53.295 L 122.45 53.785 Q 122.489 54.512 124.138 55.278 L 123.91 55.654 Q 123.92 55.835 124.93 56.208 L 125.736 55.073 L 126.352 55.042 L 126.644 55.876 L 127.966 55.201 Q 130.046 54.791 129.998 53.882 L 129.991 53.761 C 129.806 52.852 129.329 52.025 128.628 51.402 L 128.622 51.281 L 128.992 51.262 L 128.972 50.899 L 128.707 50.548 Q 126.962 50.365 126.944 50.032 L 127.646 49.268 L 127.626 48.904 L 127.484 48.548 Q 126.044 45.342 120.265 40.782 Q 120.46 39.8 120.706 39.787 L 120.953 39.775 L 121.349 40.24 Q 122.49 40.181 123.434 37.583 L 124.356 38.629 L 124.479 38.622 Q 124.694 38.611 124.816 37.998 C 127.082 36.247 128.286 33.486 128.013 30.668 L 127.968 29.818 Q 127.769 26.093 123.541 23.366 Q 121.017 21.188 108.124 21.852 Z  M 118.662 24.589 L 120.298 25.111 C 120.251 25.355 120.071 25.551 119.83 25.622 C 119.425 25.324 118.947 25.14 118.444 25.086 L 118.438 24.964 L 118.662 24.589 Z  M 120.012 26.705 Q 122.422 26.096 122.922 25.585 L 123.765 27.485 C 123.2 27.612 122.667 27.845 122.194 28.172 Q 122.14 27.173 120.018 26.827 L 120.012 26.705 Z  M 106.466 27.888 Q 110.637 27.218 110.603 26.582 L 110.726 26.575 L 110.752 27.06 Q 118.041 27.444 119.602 28.307 Q 119.663 29.458 121.18 30.048 Q 120.51 31.414 120.334 35.071 L 120.34 35.192 L 119.718 35.103 L 119.594 35.109 L 118.028 35.918 L 118.048 36.282 L 119.035 36.231 Q 118.987 36.476 118.445 36.747 L 116.445 36.364 L 116.211 36.619 L 116.217 36.74 L 116.607 37.084 L 116.73 37.078 L 116.626 37.448 L 116.633 37.568 L 117.986 37.499 L 118.376 37.843 L 118.382 37.964 L 117.259 37.779 L 116.888 37.798 L 116.655 38.053 L 116.668 38.295 Q 116.742 38.534 117.31 38.747 C 117.772 38.653 118.192 38.419 118.512 38.079 L 118.531 38.442 Q 118.577 39.289 119.811 39.226 C 119.652 39.61 119.278 39.867 118.857 39.882 L 116.999 39.856 Q 116.737 38.412 116.058 38.447 Q 115.689 38.466 115.702 38.708 L 115.766 39.92 L 115.272 39.945 L 115.292 40.309 L 115.552 40.538 L 116.143 40.022 L 116.389 40.009 Q 116.336 40.74 115.441 40.786 L 115.071 40.805 Q 114.578 40.831 114.339 38.657 L 114.325 38.415 L 114.448 38.409 L 114.579 38.523 L 114.948 38.504 C 115.513 38.431 116.004 38.087 116.257 37.587 C 115.543 36.943 114.577 36.638 113.614 36.752 L 107.206 37.203 L 107.085 37.209 C 106.929 36.294 106.631 35.409 106.203 34.583 Q 106.191 34.371 106.8 34.187 L 106.514 33.474 L 106.567 32.139 Q 106.542 31.655 106.171 31.673 C 106.52 30.65 106.673 29.571 106.62 28.492 L 106.466 27.888 Z  M 117.558 27.075 L 117.908 26.693 L 118.401 26.667 Q 119.326 26.62 119.408 26.98 L 119.044 27.119 L 117.558 27.075 Z  M 102.498 30.036 Q 102.947 28.555 104.025 28.5 L 104.271 28.487 C 103.642 29.117 103.288 29.963 103.283 30.845 Q 102.815 30.748 102.498 30.036 L 102.498 30.036 Z  M 101.861 34.319 Q 101.837 33.865 103.784 33.249 L 104.03 33.236 C 104.097 33.567 104.289 33.861 104.569 34.058 L 102.108 34.306 L 101.985 34.312 L 101.867 34.44 L 101.861 34.319 Z  M 124.79 35.083 C 125.333 34.431 126.104 34.001 126.952 33.878 L 127.076 33.872 L 127.082 33.992 L 126.965 34.12 Q 125.258 34.633 125.294 35.299 L 125.3 35.421 L 125.43 35.535 L 125.307 35.542 L 124.79 35.083 Z  M 101.478 36.403 Q 101.598 35.821 101.939 35.772 L 102.933 35.843 L 101.88 36.991 Q 101.664 37.002 101.478 36.403 Z  M 103.872 44.174 L 104.859 44.124 L 104.886 44.608 L 105.171 45.322 L 105.047 45.328 L 104.931 45.455 C 104.478 45.171 104.114 44.769 103.879 44.295 L 103.872 44.174 Z  M 100.754 48.343 L 100.988 48.088 L 101.111 48.082 Q 101.361 48.129 101.637 48.662 L 101.403 48.917 L 100.754 48.343 Z  M 103.759 53.654 L 103.883 53.647 C 104.238 53.78 104.492 54.093 104.544 54.463 Q 104.577 55.069 104.213 55.209 L 103.934 54.616 L 102.719 55.043 L 102.596 55.049 L 102.57 54.565 Q 103.804 54.501 103.759 53.654 L 103.759 53.654 Z  M 105.324 55.152 C 105.457 54.817 105.795 54.604 106.161 54.624 L 106.408 54.611 L 106.667 54.84 L 106.7 55.446 L 106.576 55.452 L 105.324 55.152 Z  M 127.148 58.401 L 111.394 59.941 L 110.034 59.889 L 110.047 60.131 L 111.573 60.902 L 111.339 61.157 L 110.969 61.177 L 110.191 60.488 Q 109.552 61.853 108.658 61.9 L 108.664 62.02 L 109.202 62.843 L 108.553 64.702 L 108.56 64.824 L 117.579 64.602 L 122.267 64.361 L 130.894 63.675 L 130.881 63.432 L 130.634 63.445 L 130.628 63.324 L 131.603 63.031 L 131.726 63.025 L 131.512 63.643 L 131.771 63.872 L 132.018 63.859 C 132.614 63.695 133.154 63.374 133.577 62.929 L 133.824 62.917 Q 133.869 63.764 135.102 63.701 L 135.719 63.669 L 135.953 63.414 L 135.766 59.901 L 135.506 59.672 C 135.186 59.71 134.888 59.854 134.662 60.08 L 134.538 60.086 L 134.279 59.856 L 134.272 59.735 L 134.389 59.608 Q 135.725 59.206 135.711 58.933 L 135.685 58.449 L 135.425 58.22 L 134.932 58.245 C 134.646 58.643 134.22 58.924 133.737 59.034 L 133.613 59.041 L 133.607 58.92 L 133.723 58.793 L 133.717 58.671 Q 133.69 58.155 129.244 58.294 L 127.148 58.401 Z  M 106.063 59.729 C 104.182 59.917 102.334 60.338 100.562 60.984 L 100.556 60.862 Q 100.541 60.589 101.764 60.314 L 101.751 60.071 L 94.225 60.459 L 93.991 60.714 L 94.011 61.077 L 94.458 64.819 L 94.373 65.552 L 94.38 65.673 L 94.509 65.788 L 94.997 65.641 L 99.444 65.534 Q 100.666 65.29 100.638 64.745 L 100.76 64.739 C 101.45 65.242 102.294 65.498 103.153 65.466 C 104.411 65.316 105.617 64.879 106.673 64.191 L 106.692 64.554 C 107.254 64.549 107.785 64.299 108.14 63.873 L 108.134 63.752 L 108.005 63.637 L 107.394 63.79 L 107.465 62.815 L 107.453 62.573 L 105.952 62.286 L 107.803 59.884 L 107.544 59.655 L 106.063 59.729 Z  M 95.537 61.849 Q 95.508 61.305 96.361 61.079 Q 97.721 61.13 97.735 61.373 L 95.656 61.844 L 95.537 61.849 Z  M 103.602 62.285 Q 103.59 62.073 104.205 62.011 L 104.328 62.005 L 104.019 63.114 Q 104.175 63.713 104.668 63.687 L 104.681 63.93 L 103.824 64.095 L 103.701 64.101 L 103.669 63.496 Q 103.649 63.133 102.785 63.177 Q 102.774 62.966 103.623 62.649 L 103.746 62.642 L 103.602 62.285 Z  M 110.796 62.643 L 112.271 62.446 Q 112.887 62.414 113.03 62.771 C 112.545 63.265 111.913 63.597 111.225 63.718 L 111.101 63.724 L 110.796 62.643 Z  M 125.2 13.807 L 124.966 14.062 L 125.244 19.271 L 125.374 19.385 L 146.952 18.032 L 168.186 17.183 L 168.388 16.322 Q 168.19 12.631 166.781 11.667 L 125.2 13.807 Z  M 166.667 14.228 L 167.661 14.298 L 167.557 14.668 L 167.726 15.506 L 167.732 15.627 L 167.485 15.639 C 167.141 15.32 166.692 15.128 166.219 15.097 L 165.973 15.111 L 165.855 15.238 L 165.849 15.117 Q 166.683 14.523 166.667 14.228 Z  M 146.939 20.101 L 145.591 20.292 Q 141.005 22.44 141.227 26.587 L 141.234 26.708 Q 143.099 26.885 143.116 27.218 L 141.142 27.32 Q 139.556 30.103 135.771 42.535 Q 132.037 51.38 132.126 53.045 L 132.152 53.53 Q 133.4 56.624 136.144 56.482 L 136.515 56.464 Q 138.088 56.383 139.112 54.144 Q 140.427 48.064 141.594 47.337 L 145.419 47.139 L 154.802 46.779 L 155.412 46.626 L 155.866 48.181 Q 158.685 55.202 161.553 55.055 C 162.954 54.925 164.204 54.137 164.905 52.939 Q 164.881 52.485 163.6 51.673 L 163.58 51.31 L 163.704 51.304 L 164.482 51.993 L 164.839 51.731 C 164.714 50.412 164.265 49.144 163.528 48.034 Q 163.358 46.585 162.957 46.606 L 162.834 46.612 L 161.855 46.9 L 161.848 46.779 Q 162.671 45.977 162.653 45.644 Q 159.208 39.02 154.54 28.086 Q 151.75 19.85 147.061 20.091 L 146.939 20.101 Z  M 146.976 27.751 L 147.1 27.745 Q 147.547 29.18 148.288 29.142 L 148.197 29.753 L 148.216 30.116 Q 148.266 31.055 149.534 31.628 L 149.605 32.957 L 149.93 34.397 Q 152.998 40.889 153.025 41.404 L 142.784 41.931 L 142.875 41.319 Q 145.147 35.221 145.065 33.677 L 145.007 32.586 L 144.877 32.472 Q 146.087 31.954 146.046 31.196 L 146.04 31.075 L 145.91 30.961 L 145.202 31.604 L 145.411 30.865 Q 146.367 30.816 146.978 27.749 L 146.976 27.751 Z  M 143.986 43.572 C 144.165 43 144.679 42.589 145.287 42.535 L 145.534 42.522 C 145.117 42.858 144.872 43.359 144.865 43.889 C 144.543 43.883 144.234 43.77 143.985 43.569 L 143.986 43.572 Z  M 127.597 58.629 L 127.362 58.884 L 127.57 62.76 C 127.548 63.271 127.704 63.774 128.013 64.187 L 129.353 63.875 L 136.763 63.616 C 137.706 63.587 138.626 63.331 139.444 62.87 C 140.202 63.166 141.006 63.33 141.821 63.355 L 142.932 63.298 L 144.77 62.961 L 144.763 62.839 Q 144.75 62.598 144.38 62.616 L 144.361 62.253 L 144.867 62.47 L 146.201 62.037 L 146.325 62.031 Q 146.54 62.019 146.727 62.617 L 146.61 62.745 L 145.727 62.425 L 145.493 62.68 L 145.506 62.923 L 145.637 63.037 L 163.547 62.359 Q 170.703 61.991 170.678 61.506 L 170.419 56.661 L 170.159 56.431 L 127.597 58.629 Z  M 172.834 11.486 Q 160.998 12.243 161.029 12.822 L 161.268 17.303 L 161.527 17.532 L 164.242 17.393 C 165.174 17.383 166.092 17.17 166.93 16.769 C 168.025 17.072 169.157 17.218 170.294 17.203 L 179.788 16.593 L 179.911 16.587 Q 180.296 15.109 181.067 15.069 L 180.418 14.496 L 180.412 14.375 L 180.529 14.247 L 180.789 14.477 C 181.464 14.439 182.14 14.528 182.782 14.739 L 182.47 15.848 L 182.476 15.969 Q 182.503 16.453 185.957 16.276 L 186.574 16.244 Q 189.782 16.079 189.756 15.595 L 189.75 15.474 L 189.315 14.281 L 189.309 14.16 L 189.931 14.249 L 190.055 14.243 L 191.633 13.676 L 191.639 13.797 L 190.815 14.568 L 190.822 14.689 L 190.951 14.804 L 191.678 14.524 L 191.802 14.517 L 191.698 14.887 Q 191.714 15.19 192.619 15.933 L 196.937 15.711 Q 197.302 15.601 197.268 14.965 L 197.165 13.029 L 196.905 12.799 L 195.45 13.36 L 195.322 13.367 L 195.062 13.137 L 195.049 12.895 L 195.912 12.851 Q 196.529 12.819 196.633 12.449 L 194.838 11.326 L 195.949 11.269 C 196.374 11.265 196.754 11.004 196.905 10.614 L 196.898 10.492 L 196.768 10.378 L 172.834 11.486 Z  M 174.127 12.513 Q 174.115 12.301 174.724 12.118 L 176.587 12.265 L 176.957 12.246 L 176.97 12.488 C 176.339 12.966 175.582 13.257 174.788 13.329 L 174.658 13.336 L 174.762 12.966 L 174.755 12.845 L 174.145 12.998 L 174.127 12.513 Z  M 186.671 13.447 Q 186.662 13.265 187.145 13.058 C 187.613 13.18 188.022 13.461 188.301 13.848 L 188.314 14.09 L 187.821 14.116 L 186.684 13.689 L 186.671 13.447 Z  M 183.736 14.083 L 184.437 13.319 L 185.177 13.28 L 185.307 13.396 C 185.189 13.892 184.759 14.257 184.241 14.3 L 183.748 14.326 L 183.736 14.083 Z  M 172.626 14.533 L 172.976 14.151 L 173.223 14.139 Q 173.84 14.107 173.982 14.464 L 174.001 14.827 L 173.885 14.954 L 173.126 14.629 L 172.879 14.642 L 172.762 14.769 L 172.755 14.648 L 172.626 14.533 Z  M 184.904 15.117 L 185.372 14.606 L 186.235 14.562 L 187.236 14.754 C 187.161 15.142 186.807 15.419 186.405 15.403 L 184.911 15.238 L 184.904 15.117 Z  M 178.033 18.505 C 176.529 18.632 175.049 18.953 173.63 19.46 Q 166.384 22.778 166.68 28.319 L 166.726 29.166 C 166.75 30.658 167.214 32.111 168.063 33.348 L 168.79 33.068 L 168.913 33.062 L 168.926 33.304 L 168.556 33.323 L 168.569 33.565 C 169.213 34.46 170.008 35.24 170.919 35.873 Q 173.001 37.224 177.572 37.596 L 181.356 38.98 Q 187.704 39.69 187.914 43.623 L 187.842 44.598 Q 187.162 48.641 180.899 48.963 C 178.775 49.174 176.685 48.324 175.335 46.699 Q 172.44 41.14 170.713 41.229 L 169.85 41.273 Q 167.537 41.392 166.81 44.588 Q 167.097 45.906 167.497 45.885 C 167.693 46.961 168.04 48.007 168.529 48.99 Q 172.633 54.608 181.054 54.175 C 183.119 54.063 185.147 53.589 187.04 52.773 L 187.034 52.652 L 186.904 52.538 L 186.846 51.447 Q 186.775 50.119 185.665 50.176 L 185.658 50.054 L 188.113 49.686 L 188.606 49.66 Q 190.465 49.713 190.489 50.17 Q 188.759 50.259 188.843 51.834 L 188.85 51.955 L 188.98 52.07 C 189.39 52.006 189.77 51.817 190.065 51.528 Q 190.051 51.286 189.681 51.305 L 189.669 51.063 L 189.916 51.05 L 190.649 50.891 Q 194.715 48.283 194.507 44.378 L 194.183 42.937 Q 194.8 42.905 194.78 42.541 L 194.761 42.172 L 194.241 41.713 L 194.417 40.372 L 194.242 39.41 Q 192.801 35.597 190.952 35.693 L 190.212 35.73 L 190.206 35.609 L 190.433 35.234 L 190.413 34.871 Q 182.762 31.742 178.628 31.954 L 178.505 31.961 L 178.511 32.082 L 180.338 33.81 L 180.344 33.931 L 179.728 33.963 Q 177.624 33.949 177.598 33.465 L 178.078 33.198 L 177.755 31.757 Q 177.711 30.939 174.736 30.819 L 172.645 31.047 L 172.512 31.054 L 172.486 30.57 L 172.33 29.971 C 172.855 29.875 173.323 29.591 173.645 29.174 L 173.626 28.812 Q 173.617 28.63 172.73 28.25 C 173.203 27.048 173.899 25.941 174.783 24.987 L 174.621 24.267 C 174.782 23.695 175.153 23.202 175.66 22.881 L 175.395 22.531 L 175.349 21.683 L 175.466 21.556 Q 175.806 21.538 176.486 22.11 L 176.609 22.103 C 176.575 21.457 177.011 20.878 177.649 20.717 L 178.149 20.813 L 178.162 21.055 Q 176.28 22.307 176.279 22.855 L 176.538 23.084 L 176.785 23.072 C 177.163 23.019 177.506 22.828 177.746 22.537 L 177.993 22.524 L 178.005 22.766 L 177.889 22.894 Q 177.519 22.913 177.532 23.155 Q 177.644 23.513 178.292 23.48 L 179.031 23.441 C 179.4 23.473 179.744 23.256 179.868 22.913 L 180.641 23.481 Q 185.03 24.587 185.107 26.044 L 186.576 25.725 C 187.224 25.72 187.853 25.946 188.344 26.363 L 188.467 26.356 L 188.312 25.758 Q 188.292 25.394 188.539 25.381 L 189.052 25.719 L 189.175 25.713 L 190.279 25.535 Q 191.032 25.739 191.045 25.981 L 190.552 26.007 L 189.805 25.923 L 189.682 25.93 L 189.87 27.135 Q 189.896 27.619 189.156 27.658 L 189.032 27.663 L 188.488 26.72 L 188.364 26.727 Q 188.179 26.736 187.24 28.849 L 187.247 28.97 L 187.376 29.085 L 188.604 28.9 L 188.396 29.639 L 188.403 29.761 L 189.142 29.722 Q 192.075 29.571 192.293 26.16 Q 191.463 22.194 189.612 22.29 Q 189.365 22.302 189.397 22.908 L 187.981 24.18 C 187.732 23.978 187.421 23.866 187.098 23.861 L 186.232 23.906 C 185.796 23.941 185.377 24.088 185.017 24.332 L 184.875 23.975 Q 183.372 23.658 183.316 22.598 L 182.706 22.751 L 181.582 22.566 L 181.576 22.445 L 186.745 21.936 L 189.966 22.013 L 189.953 21.771 L 189.291 20.955 Q 185.861 18.703 184.103 18.793 L 183.98 18.8 L 183.863 18.927 L 184.142 19.52 L 184.018 19.526 C 182.11 18.798 180.073 18.448 178.027 18.498 L 178.033 18.505 Z  M 179.814 19.386 L 180.048 19.131 L 180.172 19.124 L 181.425 19.424 L 181.438 19.666 L 181.075 19.806 L 179.82 19.622 L 179.814 19.386 Z  M 181.589 20.144 L 181.583 20.023 Q 183.821 20.242 183.842 20.635 L 183.232 20.788 L 181.997 20.852 L 181.64 21.113 L 181.796 21.712 L 181.802 21.833 L 181.673 21.839 L 181.542 21.725 L 181.419 21.731 L 180.692 22.011 L 180.679 21.769 C 181.162 21.343 181.481 20.768 181.582 20.138 L 181.589 20.144 Z  M 171.629 21.264 C 172.338 21.178 173.054 21.357 173.635 21.767 L 172.069 22.577 L 171.823 22.589 L 171.816 22.468 L 172.303 22.321 L 172.291 22.081 Q 171.919 21.493 171.518 21.514 L 171.511 21.381 L 171.629 21.264 Z  M 178.674 21.144 L 179.038 21.004 L 180.031 21.074 C 179.844 21.507 179.434 21.806 178.959 21.857 L 178.466 21.882 L 178.459 21.764 L 178.946 21.618 L 178.68 21.267 L 178.674 21.144 Z  M 172.942 32.116 Q 173.015 31.748 173.91 31.702 L 174.033 31.695 C 174.98 31.811 175.886 32.139 176.682 32.653 C 175.943 33.386 174.953 33.827 173.903 33.889 C 172.964 34.002 172.016 33.746 171.268 33.177 L 171.619 32.795 L 174.852 33.114 L 175.087 32.859 L 175.067 32.496 L 174.801 32.146 C 174.254 32.148 173.713 32.259 173.21 32.47 L 173.203 32.349 L 172.959 32.361 L 172.942 32.116 Z  M 181.234 34.482 L 181.331 33.992 Q 181.31 33.598 182.902 33.304 L 183.403 33.399 L 183.415 33.642 L 183.065 34.024 L 181.954 34.081 Q 181.646 34.097 181.61 34.584 L 181.363 34.597 L 181.234 34.482 Z  M 179.649 34.928 L 179.772 34.922 L 179.889 34.794 L 180.136 34.782 L 181.629 34.947 L 181.636 35.069 Q 181.655 35.432 180.675 35.604 C 180.213 35.65 179.783 35.368 179.649 34.932 L 179.649 34.928 Z  M 186.682 34.566 L 187.545 34.522 L 187.552 34.643 L 187.434 34.77 L 187.441 34.891 L 187.571 35.006 Q 188.189 35.004 188.2 35.217 L 188.33 35.331 L 188.356 35.815 L 186.012 35.936 L 185.973 35.21 L 186.824 34.923 L 186.818 34.807 L 186.688 34.692 L 186.682 34.566 Z  M 178.227 36.095 L 178.221 35.974 Q 180.224 36.417 180.24 36.719 L 180.259 37.082 L 178.409 37.178 L 177.655 36.981 L 178.227 36.095 Z  M 184.351 37.237 C 184.634 36.814 185.052 36.494 185.539 36.326 L 185.448 36.938 L 185.474 37.423 L 185.104 37.441 L 184.351 37.237 Z  M 188.76 36.403 L 188.993 36.149 C 189.282 36.476 189.695 36.674 190.136 36.697 L 190.142 36.818 L 189.792 37.2 L 189.055 37.238 L 189.022 36.633 L 188.76 36.403 Z  M 186.428 36.766 L 186.662 36.511 L 187.903 36.569 C 187.956 37.052 187.678 37.512 187.22 37.698 Q 186.912 37.713 186.428 36.769 L 186.428 36.766 Z  M 163.619 56.768 L 163.385 57.023 L 163.405 57.386 C 163.452 58.603 163.6 59.813 163.845 61.007 L 163.78 62.104 L 166.245 61.977 Q 167.223 61.744 167.207 61.442 C 168.116 61.826 169.095 62.023 170.085 62.022 L 176.487 61.45 L 199.313 60.276 L 199.546 60.021 L 199.281 55.055 L 199.152 54.94 L 193.853 55.334 L 163.619 56.768 Z  M 187.54 57.602 Q 187.528 57.36 188.254 57.08 L 188.501 57.067 L 188.507 57.188 Q 188.014 57.213 188.028 57.455 L 188.034 57.576 L 188.163 57.691 L 188.884 57.29 L 189.131 57.277 Q 188.714 58.149 188.313 58.169 L 188.066 58.182 Q 188.042 57.728 187.547 57.723 L 187.54 57.602 Z  M 190.312 10.457 L 190.079 10.712 L 190.169 12.41 L 190.352 13.494 L 190.273 14.346 L 190.337 15.557 Q 190.346 15.739 190.849 15.895 L 193.681 15.628 L 194.681 15.82 L 194.914 15.565 L 194.901 15.322 Q 193.908 15.252 193.895 15.01 L 195.499 14.927 L 195.734 14.672 Q 195.713 14.279 193.714 13.926 Q 193.701 13.685 194.558 13.519 Q 196.051 13.685 196.097 14.533 L 195.526 15.412 L 195.532 15.534 L 198 15.406 L 198.116 15.279 C 197.728 14.513 197.233 13.802 196.646 13.169 L 193.399 12.607 L 193.276 12.613 Q 192.965 13.723 192.718 13.736 Q 192.679 13.01 192.309 13.028 L 190.956 13.098 C 191.203 12.773 191.354 12.386 191.39 11.982 L 191.637 11.969 L 192.532 12.531 L 192.889 12.27 L 191.99 11.707 L 191.983 11.586 L 192.101 11.459 L 193.467 11.631 L 193.59 11.625 Q 193.807 11.614 194.045 10.873 C 194.55 10.996 195.024 11.219 195.438 11.53 Q 197.706 13.963 198.909 13.901 L 199.033 13.895 L 199.266 13.64 L 198.358 12.837 L 198.351 12.716 L 201.176 12.328 L 201.299 12.321 L 201.065 12.576 L 201.375 13.775 L 202.11 13.615 L 202.232 13.609 C 201.97 13.878 201.813 14.231 201.791 14.604 L 201.804 14.846 L 202.07 15.196 L 202.187 15.069 L 205.168 15.28 L 205.661 15.255 Q 205.753 14.156 205.973 14.145 L 206.096 14.139 L 206.479 14.362 L 207.453 14.069 L 207.46 14.19 L 207.59 14.305 Q 207.599 14.486 207.116 14.693 L 207.376 14.923 L 208.486 14.865 L 208.72 14.611 L 208.655 13.4 L 209.532 13.597 L 209.901 13.579 C 210.33 13.141 210.868 12.82 211.46 12.649 L 212.077 12.617 L 212.057 12.253 L 211.532 11.674 L 211.525 11.55 L 212.382 11.384 L 212.505 11.378 C 213.061 11.335 213.58 11.653 213.785 12.162 Q 211.904 12.259 209.343 14.698 L 209.349 14.819 L 209.473 14.813 L 209.59 14.685 L 210.824 14.622 L 219.103 14.439 L 219.226 14.432 C 220.945 14.392 222.644 14.059 224.246 13.446 C 224.858 14 225.684 14.266 226.512 14.178 L 227.746 14.116 L 227.98 13.861 L 227.773 9.985 C 227.794 9.47 227.637 8.964 227.325 8.55 L 224.864 8.798 L 224.124 8.836 L 212.884 9.171 L 212.514 9.191 C 210.25 9.25 208.014 9.695 205.903 10.503 Q 205.868 9.838 204.498 9.604 L 203.882 9.636 L 203.155 9.916 L 200.155 11.649 Q 199.135 10.487 198.856 10.501 L 198.643 11.119 L 198.272 11.138 L 198.493 10.641 L 197.474 10.087 L 196.732 10.125 L 195.786 11.027 Q 195.747 10.3 193.144 10.192 L 190.806 10.433 L 190.312 10.457 Z  M 196.39 10.751 L 196.754 10.611 L 198.14 11.147 Q 198.186 11.995 198.925 11.957 L 198.932 12.077 C 198.594 12.143 198.295 12.332 198.094 12.607 L 197.845 12.619 L 197.839 12.498 Q 196.419 11.328 196.388 10.752 L 196.39 10.751 Z  M 203.69 10.74 L 204.287 10.345 L 204.534 10.333 L 205.312 11.021 L 204.227 11.562 L 203.695 10.861 L 203.69 10.74 Z  M 203.229 11.371 L 204.104 11.569 L 204.111 11.69 L 203.748 11.83 Q 203.76 12.072 204.131 12.053 L 204.144 12.296 L 203.65 12.321 C 203.363 12.224 203.129 12.017 203.001 11.747 L 203.229 11.371 Z  M 223.41 11.665 Q 223.352 10.574 224.693 10.267 Q 224.908 10.256 225.095 10.853 Q 225.08 11.157 223.529 11.662 L 223.41 11.665 Z  M 204.65 12.509 C 204.828 12.07 205.243 11.766 205.722 11.726 L 205.969 11.713 C 205.673 12.114 205.486 12.582 205.423 13.073 L 205.3 13.08 Q 205.274 12.596 204.657 12.627 L 204.65 12.509 Z  M 200.403 14.06 C 200.083 14.098 199.786 14.242 199.559 14.467 L 200.579 15.022 L 200.826 15.009 L 201.059 14.754 L 201.04 14.391 L 200.65 14.048 L 200.403 14.06 Z  M 217.129 16.843 C 215.766 16.931 214.411 17.123 213.078 17.416 L 213.091 17.658 L 213.726 17.989 L 213.493 18.244 L 213.123 18.264 C 212.537 18.274 212.014 17.906 211.837 17.358 L 211.59 17.371 Q 211.616 17.855 210.876 17.893 C 210.197 17.621 209.478 17.454 208.746 17.396 C 207.885 17.434 207.047 17.686 206.312 18.128 C 204.882 17.834 203.421 17.705 201.961 17.745 L 200.356 17.827 Q 197.209 17.989 196.29 20.465 Q 196.377 20.946 196.686 20.931 L 197.797 20.874 L 197.914 20.746 Q 198.676 21.132 198.692 21.434 L 198.212 21.702 L 196.832 21.287 L 196.339 21.313 L 196.106 21.567 L 197.262 22.358 L 197.28 22.721 Q 196.14 23.387 196.098 23.754 L 196.584 30.531 L 196.746 33.558 L 196.7 35.018 L 197.582 35.336 L 197.706 35.33 Q 199.815 32.55 200.646 32.507 L 200.64 32.393 L 199.991 31.82 L 199.985 31.698 Q 200.726 31.661 200.712 31.418 C 200.553 31.15 200.263 30.981 199.946 30.972 L 199.94 30.851 L 200.064 30.845 Q 201.572 31.285 201.634 32.466 L 201.654 32.83 C 201.632 33.238 201.48 33.628 201.219 33.946 L 199.839 33.531 L 199.106 33.69 Q 198.52 36.028 197.995 36.055 L 197.74 36.068 L 196.87 35.991 L 196.877 36.113 L 196.759 36.24 L 196.798 36.966 L 197.265 38.764 L 197.09 40.105 L 197.096 40.227 L 198.838 40.38 C 199.969 40.21 201.074 39.908 202.131 39.482 L 202.125 39.361 L 201.865 39.132 C 201.869 38.694 202.075 38.282 202.424 38.009 L 202.793 37.99 L 203.696 38.673 L 204.163 38.163 L 204.105 37.072 L 204.339 36.817 L 206.683 36.697 L 213.949 36.08 L 216.553 36.189 L 216.546 36.068 L 216.384 35.348 Q 216.336 34.44 217.924 34.054 L 218.171 34.041 Q 217.116 35.158 217.15 35.796 L 217.157 35.917 L 217.416 36.147 L 218.77 36.077 Q 221.978 35.912 221.848 33.49 L 221.842 33.369 C 221.808 32.885 221.609 32.426 221.278 32.065 Q 219.676 30.445 215.882 30.64 C 213.915 30.794 211.98 31.221 210.135 31.908 L 210.148 32.15 C 210.782 32.132 211.415 32.223 212.018 32.418 L 212.024 32.539 L 211.778 32.552 Q 211.429 33.542 211.213 33.553 L 210.966 33.566 L 210.837 33.451 L 210.83 33.33 L 210.947 33.202 L 210.934 32.96 L 209.529 32.061 L 209.633 31.692 L 209.626 31.57 L 208.529 31.87 C 207.35 31.542 206.135 31.359 204.912 31.327 L 204.171 31.366 L 204.055 31.493 Q 203.481 33.466 202.677 33.507 L 202.554 33.513 C 203.122 32.48 203.482 31.347 203.613 30.18 C 203.541 29.324 203.241 28.502 202.744 27.796 Q 203.732 27.745 203.673 26.654 L 203.272 23.76 Q 203.226 22.913 205.324 22.805 L 211.018 22.876 L 211.265 22.863 C 212.222 22.828 213.149 22.528 213.94 21.998 L 214.063 21.991 C 214.09 22.123 214.051 22.26 213.96 22.361 C 213.868 22.461 213.733 22.513 213.596 22.5 L 213.609 22.743 L 218.551 22.61 Q 222.006 22.432 222.382 20.227 L 222.376 20.106 Q 221.204 20.166 220.792 18.244 L 220.779 18.002 L 221.026 17.989 L 221.662 18.321 L 221.896 18.066 L 221.889 17.945 Q 221.177 16.797 217.129 16.85 L 217.129 16.843 Z  M 197.583 19.181 C 197.969 18.723 198.551 18.469 199.155 18.494 L 201.402 18.863 L 201.408 18.984 L 200.798 19.137 L 197.708 19.175 L 197.583 19.181 Z  M 210.895 18.253 L 212.525 18.655 L 212.532 18.777 L 212.298 19.031 L 210.675 18.751 L 210.668 18.627 L 210.895 18.253 Z  M 207.168 20.267 L 207.778 20.114 L 208.518 20.076 Q 208.888 20.057 208.92 20.663 L 209.166 20.65 L 209.154 20.407 L 209.277 20.401 L 209.284 20.522 C 208.956 20.995 208.423 21.292 207.842 21.324 Q 207.666 20.362 207.173 20.388 L 207.168 20.267 Z  M 198.53 23.027 L 199.277 23.11 L 199.399 23.103 L 199.516 22.976 L 199.698 24.059 Q 198.571 23.814 198.555 23.512 L 198.53 23.027 Z  M 200.899 34.928 Q 201.609 34.892 203.543 33.46 L 204.179 33.791 Q 204.192 34.033 203.211 34.205 C 203.191 34.565 203.409 34.896 203.75 35.027 L 204.738 34.976 L 204.751 35.219 Q 204.702 35.464 204.159 35.735 L 202.799 35.683 L 202.676 35.69 L 202.559 35.817 L 202.839 36.41 L 202.845 36.531 L 201.601 36.352 L 201.607 36.473 L 201.491 36.6 L 201.523 37.206 L 200.64 36.887 L 200.666 35.064 L 200.66 34.943 L 200.899 34.928 Z  M 211.484 33.898 L 211.847 33.758 L 213.493 34.523 L 213.616 34.516 Q 213.66 35.334 212.441 35.67 L 212.317 35.677 L 212.31 35.556 L 212.499 34.453 Q 212.323 33.976 211.487 34.019 L 211.484 33.898 Z  M 202.62 34.718 C 201.997 34.725 201.414 35.026 201.055 35.527 L 201.068 35.77 L 202.055 35.719 Q 202.672 35.687 202.776 35.317 L 202.75 34.833 L 202.62 34.718 Z  M 203.366 39.418 Q 202.53 40.554 199.969 40.686 L 198.735 40.749 C 198.191 40.802 197.641 40.748 197.118 40.59 L 197.125 40.711 L 197.008 40.838 L 197.04 41.443 L 197.689 42.017 C 197.346 43.084 197.197 44.202 197.247 45.319 L 197.332 46.894 C 197.441 48.156 197.673 49.405 198.025 50.624 Q 198.135 52.682 204.181 52.371 L 206.401 52.257 C 208.107 52.172 209.794 51.881 211.428 51.392 C 213.771 51.701 216.136 51.823 218.5 51.756 L 220.229 51.667 Q 224.917 51.426 224.736 48.035 L 224.58 47.435 Q 223.267 45.438 218.304 45.693 L 214.603 45.884 L 214.259 46.388 L 214.265 46.509 L 212.278 46.368 L 211.785 46.394 Q 210.828 46.442 210.7 46.935 C 209.08 46.521 207.396 46.402 205.733 46.584 C 204.842 46.641 204.034 46.072 203.804 45.225 Q 204.516 44.67 204.376 42.037 L 204.247 39.615 L 203.987 39.386 L 203.366 39.418 Z  M 199.501 45.81 Q 199.391 43.751 201.365 43.65 Q 200.982 45.734 199.625 45.804 L 199.501 45.81 Z  M 203.857 48.622 L 204.221 48.481 L 205.221 48.673 Q 204.208 50.547 203.838 50.566 L 203.708 50.451 L 204.168 49.82 L 204.13 49.093 L 203.863 48.742 L 203.857 48.622 Z  M 217.649 49.734 L 218.259 49.581 L 218.753 49.555 L 218.799 50.411 L 219.064 50.761 L 219.071 50.882 L 218.701 50.901 C 218.263 50.598 217.902 50.2 217.647 49.737 L 217.649 49.734 Z  M 228.479 53.306 C 227.148 53.542 225.873 54.02 224.719 54.714 L 224.596 54.721 Q 224.583 54.478 225.316 54.319 L 225.291 53.835 L 216.148 54.063 C 213.879 54.206 211.622 54.484 209.388 54.896 L 209.401 55.138 L 209.771 55.119 L 209.784 55.361 L 209.42 55.501 C 209.113 55.342 208.765 55.277 208.419 55.312 L 208.413 55.191 L 208.64 54.815 L 208.627 54.573 L 208.498 54.458 L 207.393 54.636 L 205.783 54.598 Q 203.685 54.706 202.867 55.598 L 202.744 55.604 L 201.711 54.808 L 201.464 54.821 Q 201.523 55.912 199.179 56.032 L 198.933 56.045 Q 198.747 56.054 198.393 55.223 L 198.517 55.216 L 198.257 54.987 L 192.705 55.272 L 192.471 55.527 L 192.653 58.919 Q 192.662 59.1 193.541 59.359 C 194.599 58.93 195.704 58.628 196.835 58.461 L 197.204 58.441 C 198.265 58.32 199.325 58.665 200.1 59.386 C 198.994 59.173 197.869 59.068 196.743 59.073 L 196.126 59.105 C 194.969 59.211 193.849 59.558 192.84 60.123 L 192.853 60.365 L 198.918 60.417 L 214.581 59.49 L 214.704 59.484 C 215.103 58.801 215.82 58.357 216.619 58.296 L 216.743 58.289 L 216.756 58.532 Q 215.418 58.903 215.434 59.207 L 215.441 59.328 L 215.57 59.442 L 215.694 59.436 L 215.811 59.309 L 216.798 59.258 L 218.785 59.398 L 219.032 59.385 C 219.434 59.401 219.788 59.124 219.863 58.736 L 219.59 58.264 L 219.584 58.143 Q 220.134 58.024 220.967 56.25 Q 221.785 56.511 221.863 56.811 L 221.87 56.932 L 221.136 57.091 L 221.149 57.333 L 221.772 57.423 L 225.72 57.219 L 226.948 57.035 Q 226.999 58.004 228.11 57.947 L 228.13 58.311 L 227.766 58.45 Q 227.149 58.482 226.227 57.436 L 226.103 57.443 L 225.986 57.57 L 225.642 58.073 L 225.272 58.092 L 224.5 57.525 Q 224.253 57.538 224.285 58.143 L 223.299 58.194 L 222.825 58.583 Q 222.859 59.218 230.267 58.928 L 230.493 58.552 L 230.474 58.183 L 229.942 55.175 L 230.137 54.195 C 229.786 53.629 229.152 53.29 228.477 53.306 L 228.479 53.306 Z  M 201.161 56.044 L 202.258 55.745 L 202.381 55.739 L 202.511 55.853 L 201.921 56.369 L 202.349 57.44 L 202.355 57.562 Q 200.958 56.814 200.918 56.057 L 201.161 56.044 Z  M 213.582 56.984 Q 213.566 56.681 214.303 56.583 Q 214.414 55.848 214.634 55.837 L 214.881 55.824 Q 216.119 55.852 216.153 56.488 L 216.16 56.617 L 214.925 56.68 L 213.591 57.113 L 213.582 56.984 Z  M 203.781 58.831 Q 203.759 58.407 205.102 58.156 L 205.349 58.143 L 205.739 58.487 L 205.751 58.73 L 203.781 58.831 Z  M 206.138 58.952 C 206.202 58.623 206.511 58.396 206.852 58.428 L 207.839 58.377 L 207.845 58.498 Q 207.772 58.866 207.125 58.9 L 206.138 58.952 Z  M 218.495 58.681 L 218.858 58.541 L 219.105 58.528 L 218.754 58.91 L 218.495 58.681 Z  M 221.86 8.712 Q 219.407 9.111 219.431 9.565 L 219.691 9.795 L 219.814 9.789 Q 219.795 9.425 220.042 9.412 L 220.905 9.368 L 220.677 9.744 L 220.684 9.865 L 221.21 10.445 L 220.21 10.254 L 219.976 10.509 Q 220.002 10.993 219.632 11.012 L 219.605 12.837 Q 219.676 14.165 223.995 13.943 L 225.105 13.886 C 225.98 13.917 226.823 13.562 227.404 12.918 L 227.144 12.689 L 226.898 12.701 L 224.573 13.185 L 223.879 11.763 C 223.925 11.521 224.105 11.324 224.346 11.254 C 225.142 11.723 226.053 11.969 226.982 11.968 L 228.444 11.528 L 228.431 11.286 L 227.077 11.356 L 226.817 11.127 L 226.804 10.884 L 227.674 10.961 L 228.414 10.923 L 228.531 10.796 L 229.712 12.067 L 229.726 12.316 L 228.83 11.755 L 228.707 11.761 L 228.59 11.889 L 228.733 12.246 L 228.538 13.228 Q 228.823 13.941 229.07 13.929 L 254.112 12.64 C 254.512 11.994 255.153 11.525 255.898 11.334 L 256.022 11.327 L 255.918 11.697 L 256.307 12.041 L 256.08 12.417 L 256.086 12.538 L 262.502 12.208 L 262.735 11.953 L 262.47 6.987 L 262.34 6.872 L 260.373 7.095 L 256.912 7.152 L 255.061 7.246 L 248.396 7.469 L 245.07 7.762 Q 244.824 7.774 244.856 8.38 L 243.836 10.135 L 243.096 10.172 C 242.685 10.236 242.306 10.426 242.011 10.714 L 241.764 10.727 L 241.985 10.23 L 241.713 9.758 L 241.699 9.516 L 241.823 9.51 L 241.953 9.625 L 243.063 9.568 Q 243.695 9.231 243.765 8.802 L 243.758 8.682 L 243.628 8.565 L 242.166 9.005 L 242.043 9.011 L 241.647 8.546 Q 243.614 8.297 243.596 7.96 L 243.589 7.839 L 237.167 8.048 L 234.453 8.187 C 232.243 8.221 230.051 8.579 227.95 9.25 Q 227.93 8.887 226.806 8.703 L 225.943 8.747 L 224.976 9.161 Q 224.963 8.919 224.093 8.842 L 223.97 8.848 L 223.853 8.976 L 224.138 9.69 L 224.144 9.811 L 223.528 9.843 C 222.908 9.565 222.343 9.183 221.859 8.713 L 221.86 8.712 Z  M 228.821 9.327 L 229.684 9.283 L 229.755 10.611 Q 228.892 10.657 228.827 9.445 L 228.821 9.327 Z  M 239.321 9.03 L 240.674 8.961 Q 240.719 9.808 241.336 9.776 Q 241.36 10.23 239.764 10.464 Q 239.552 10.475 239.321 9.029 L 239.321 9.03 Z  M 231.872 10.873 Q 231.85 10.45 233.193 10.198 L 233.317 10.192 L 233.336 10.555 L 233.109 10.931 L 232.609 10.835 L 231.999 10.988 L 231.872 10.873 Z  M 248.002 9.436 L 248.742 9.398 L 248.54 10.258 Q 248.56 10.622 249.3 10.583 Q 249.317 10.916 248.091 11.131 C 247.73 11.189 247.371 11.011 247.203 10.691 L 247.189 10.449 L 247.572 10.672 L 247.696 10.666 L 248.046 10.284 L 248.002 9.436 Z  M 225.327 11.088 L 226.294 10.674 L 226.418 10.668 L 226.431 10.91 C 226.294 10.898 226.16 10.95 226.068 11.051 C 225.975 11.15 225.937 11.287 225.964 11.419 L 225.593 11.439 L 225.334 11.21 L 225.327 11.088 Z  M 232.268 11.338 L 232.639 11.319 L 233.287 11.893 L 233.411 11.887 L 233.527 11.759 L 233.67 12.116 L 233.314 12.377 L 233.19 12.383 L 232.32 12.307 L 232.268 11.338 Z  M 221.08 12.642 L 222.855 13.401 L 222.861 13.522 L 222.614 13.535 Q 221.11 13.214 221.086 12.761 L 221.08 12.642 Z  M 229.755 12.925 L 230.605 12.638 L 232.454 12.542 Q 232.473 12.906 231.119 12.976 L 229.885 13.039 L 229.768 13.166 L 229.755 12.925 Z  M 241.631 15.229 C 238.863 15.266 236.181 16.169 233.974 17.809 Q 232.897 19.079 232.189 19.115 Q 229.898 20.235 228.369 24.05 Q 226.275 31.171 226.451 34.471 Q 226.523 35.801 227.139 35.769 L 227.178 36.495 C 227.306 38.846 227.978 41.138 229.144 43.195 Q 232.515 48.974 236.122 48.788 L 236.136 49.03 L 235.383 48.826 L 235.149 49.081 L 235.162 49.323 C 237.738 50.362 240.501 50.881 243.285 50.848 L 244.889 50.766 C 245.796 50.77 246.668 50.42 247.311 49.791 L 248.435 49.976 L 249.175 49.938 C 250.423 49.673 251.53 48.968 252.286 47.956 L 252.273 47.714 L 252.149 47.721 L 251.539 47.874 L 251.527 47.631 L 252.137 47.478 L 253.247 47.421 L 253.598 47.039 L 253.585 46.796 L 252.111 46.994 L 251.988 47 C 251.971 46.68 251.821 46.38 251.572 46.172 L 252.436 46.127 L 254.721 44.916 L 254.708 44.674 L 252.953 44.279 L 252.946 44.158 L 253.18 43.903 L 253.427 43.89 L 254.446 44.445 L 254.927 44.177 Q 254.887 43.421 253.895 43.38 L 253.648 43.394 L 251.932 43.725 Q 250.691 43.667 250.646 42.819 L 252.744 42.711 L 252.724 42.348 L 252.598 42.231 L 253.345 42.314 Q 255.65 43.774 256.019 43.756 L 256.026 43.876 Q 255.046 44.049 255.059 44.29 L 255.065 44.412 Q 255.075 44.593 256.079 44.845 L 256.202 44.839 Q 258.235 41.212 258.106 38.789 L 258.099 38.669 C 258.124 37.085 256.934 35.735 255.334 35.531 L 255.347 35.773 C 254.875 36.721 254.513 37.717 254.268 38.744 L 254.287 39.107 L 253.671 39.139 C 253.187 39.25 252.762 39.531 252.476 39.929 L 251.729 39.846 L 249.995 42.121 L 250.027 42.727 L 249.54 42.873 L 249.709 43.714 L 249.475 43.969 C 249.459 43.649 249.309 43.349 249.06 43.141 L 248.71 43.523 Q 247.532 44.069 247.514 44.313 L 247.527 44.555 Q 251.133 44.888 251.157 45.34 L 251.163 45.461 L 251.04 45.468 L 248.248 46.462 L 246.875 46.168 L 246.868 46.047 L 246.992 46.04 L 247.621 46.251 L 247.855 45.996 Q 247.828 45.479 248.92 45.091 Q 248.899 44.698 245.934 44.759 C 244.756 44.748 243.605 45.104 242.648 45.778 L 242.388 45.549 L 241.278 45.606 L 241.018 45.376 Q 242.005 45.325 241.992 45.084 L 241.986 44.962 L 240.993 44.892 L 240.025 45.306 L 239.617 44.599 Q 236.977 43.186 236.773 42.316 L 236.163 42.469 L 235.917 42.481 C 235.427 42.533 234.96 42.263 234.77 41.816 C 235.14 41.847 235.484 41.63 235.608 41.287 L 235.588 40.924 L 234.361 38.801 L 234.439 37.947 L 233.946 37.973 C 233.594 38.355 233.137 38.631 232.631 38.769 L 232.496 38.775 L 232.49 38.654 L 232.698 37.916 L 234.052 37.845 L 234.168 37.718 L 233.89 37.125 L 234.103 36.507 L 234.097 36.386 L 233.967 36.271 Q 233.351 36.303 233.338 36.062 Q 234.078 36.023 234.058 35.66 L 234.046 35.416 C 233.975 34.707 233.771 34.018 233.442 33.382 Q 232.191 33.113 232.176 32.841 L 232.17 32.72 L 232.293 32.713 L 232.423 32.828 L 232.792 32.809 C 232.988 32.545 233.304 32.393 233.637 32.401 L 233.585 31.433 C 233.561 30.731 233.648 30.03 233.845 29.355 Q 235.703 24.765 235.638 23.555 L 235.632 23.433 L 236.248 23.402 Q 236.958 23.365 238.152 21.971 Q 239.632 21.895 239.542 20.197 L 239.25 19.362 L 239.373 19.356 L 239.49 19.228 L 239.736 19.216 L 239.743 19.336 L 239.626 19.464 L 239.632 19.585 Q 240.327 21.007 240.574 20.994 L 240.943 20.975 L 241.178 20.72 L 240.744 19.522 L 240.977 19.268 L 241.348 19.248 L 241.737 19.592 L 241.743 19.713 L 241.666 20.567 L 241.788 20.561 L 241.919 20.676 L 242.288 20.657 C 242.553 20.314 242.937 20.079 243.367 19.994 L 243.399 20.6 L 243.659 20.829 L 244.276 20.797 C 245.203 20.807 246.111 21.053 246.911 21.511 C 247.635 22.322 248.725 22.722 249.814 22.577 L 249.82 22.698 L 249.703 22.826 L 249.735 23.431 Q 249.81 24.824 251.729 26 L 251.637 26.611 L 251.663 27.096 C 252.024 27.634 252.66 27.93 253.312 27.861 L 254.299 27.81 Q 257.729 27.148 257.638 25.452 L 257.612 24.968 Q 257.58 24.363 256.142 22.857 L 256.448 21.627 L 255.188 21.207 L 255.532 20.703 L 255.525 20.582 Q 255.465 19.461 253.052 18.281 Q 252.901 19.503 252.623 19.517 L 252.253 19.536 L 252.247 19.415 L 252.649 17.691 C 249.77 15.791 246.322 14.899 242.862 15.16 L 241.631 15.229 Z  M 240.044 17.982 L 240.919 18.18 Q 240.877 18.546 240.095 18.95 L 240.044 17.982 Z  M 230.795 23.195 L 231.405 23.043 L 231.529 23.036 L 232.424 23.597 L 233.041 23.566 L 233.158 23.439 Q 233.179 23.832 231.963 24.228 Q 230.852 24.286 230.801 23.317 L 230.795 23.195 Z  M 253.379 22.155 L 254.107 21.875 L 254.23 21.868 L 254.36 21.984 Q 254.763 23.178 255.535 23.138 L 255.061 23.526 L 254.314 23.443 L 253.821 23.469 L 253.387 22.276 L 253.379 22.155 Z  M 250.22 23.29 L 251.07 23.003 Q 251.948 23.231 251.96 23.443 L 251.985 23.927 Q 251.127 24.062 251.148 24.456 L 251.024 24.462 L 250.895 24.348 L 250.999 23.978 L 250.993 23.857 L 250.35 23.405 L 250.22 23.29 Z  M 254.103 24.183 C 254.352 24.385 254.663 24.497 254.985 24.502 L 255.232 24.489 L 256.447 24.062 L 256.492 24.91 L 255.265 25.094 C 254.805 25.123 254.351 24.972 254.005 24.674 L 254.103 24.183 Z  M 228.05 27.341 Q 228.01 26.584 229.346 26.181 L 229.352 26.302 L 229.599 26.289 L 229.631 26.895 L 230.796 27.807 Q 230.822 28.291 232.176 28.222 L 232.182 28.343 Q 230.729 28.936 230.786 29.994 L 228.441 30.114 L 228.435 29.993 L 229 28.993 L 228.728 28.521 L 228.721 28.4 Q 229.816 28.04 229.8 27.737 L 229.793 27.616 L 229.533 27.387 C 229.156 27.439 228.813 27.631 228.573 27.922 L 228.326 27.935 L 228.05 27.341 Z  M 231.314 30.574 Q 231.272 29.787 232.243 29.432 L 232.25 29.554 L 232.496 29.541 L 232.503 29.662 C 232.116 29.903 231.9 30.337 231.945 30.785 L 231.322 30.695 L 231.314 30.574 Z  M 229.12 31.173 L 229.366 31.16 C 229.977 31.261 230.548 31.526 231.015 31.925 L 230.652 32.065 C 230.492 31.737 230.127 31.556 229.763 31.625 L 229.516 31.638 L 229.399 31.765 L 229.12 31.173 Z  M 228.398 33.881 Q 228.376 33.458 231.197 33.009 L 231.002 33.991 L 230.373 33.78 L 227.918 34.15 Q 227.548 34.168 227.535 33.927 L 227.529 33.805 L 227.776 33.793 L 228.398 33.881 Z  M 227.619 35.5 Q 227.606 35.258 227.976 35.239 L 228.093 35.112 Q 229.605 35.034 229.81 34.78 L 229.823 35.023 C 229.386 35.312 228.889 35.503 228.368 35.583 L 228.245 35.59 L 227.619 35.5 Z  M 228.762 38.357 L 229.236 37.968 Q 231.426 37.856 232.69 40.098 L 232.567 40.105 C 232.049 40.02 231.566 39.792 231.175 39.447 C 230.761 40.041 230.105 40.43 229.376 40.512 L 228.728 39.938 L 228.721 39.817 L 229.48 40.142 L 229.603 40.136 L 229.837 39.881 L 229.824 39.639 Q 228.789 38.871 228.762 38.356 L 228.762 38.357 Z  M 252.34 37.386 L 251.989 37.769 L 251.996 37.89 L 252.385 38.234 L 252.509 38.228 L 253.606 37.928 L 253.6 37.808 L 252.834 37.361 L 252.34 37.386 Z  M 228.502 40.436 L 229.002 40.531 Q 229.013 40.743 228.404 40.926 L 228.385 40.563 L 228.502 40.436 Z  M 230.264 40.952 L 230.511 40.939 L 231.27 41.264 L 231.277 41.386 L 231.159 41.513 L 231.179 41.876 Q 231.198 42.24 233.049 42.144 L 233.055 42.265 C 232.065 42.469 231.121 42.847 230.267 43.38 L 230.144 43.386 L 230.371 43.011 L 229.722 42.437 L 229.709 42.194 Q 230.45 42.157 230.437 41.914 L 230.43 41.793 L 230.264 40.952 Z  M 236.373 44.16 Q 236.836 44.136 237.327 45.813 L 239.05 45.603 L 239.92 45.68 L 239.927 45.801 L 239.07 46.085 L 236.214 45.868 L 236.09 45.875 L 236.084 45.753 L 236.373 44.16 Z  M 242.821 46.743 L 243.19 46.725 C 243.709 47.214 244.378 47.522 245.093 47.599 Q 244.424 48.965 243.81 48.997 C 243.691 48.248 243.352 47.548 242.837 46.983 L 242.821 46.743 Z  M 246.859 48.238 Q 246.814 47.391 248.155 47.078 L 248.278 47.072 Q 248.325 47.95 247.109 48.347 L 246.985 48.353 L 246.859 48.238 Z  M 245.532 48.792 L 246.772 48.85 L 247.259 48.704 L 247.383 48.697 C 247.336 48.94 247.156 49.136 246.915 49.206 L 245.555 49.155 L 245.432 49.161 L 245.419 48.92 L 245.532 48.792 Z  M 246.959 52.362 L 246.473 52.509 Q 233.53 53.417 233.557 53.902 C 232.843 53.469 232.012 53.258 231.174 53.296 L 225.291 54.327 C 224.228 54.28 223.178 54.089 222.168 53.76 L 222.181 54.001 L 222.312 54.116 C 221.954 55.433 221.777 56.789 221.784 58.151 L 221.804 58.515 C 221.784 58.871 221.998 59.201 222.335 59.334 L 224.432 59.226 L 251.68 57.46 L 254.775 57.544 L 255.022 57.531 L 255.372 57.148 L 256.379 57.461 L 256.996 57.429 Q 257.476 57.162 257.457 56.799 C 257.936 57.235 258.573 57.465 259.226 57.436 L 260.213 57.385 L 264.389 56.806 L 264.758 56.787 Q 265.159 56.766 265.167 55.187 Q 265.097 53.858 264.727 53.877 L 265.045 52.889 L 264.863 51.802 L 264.617 51.815 L 262.874 51.662 Q 262.384 51.747 262.4 52.05 L 262.419 52.413 L 262.549 52.528 L 263.523 52.235 L 263.647 52.229 L 263.322 53.095 L 263.854 53.797 L 263.861 53.917 L 263.731 53.802 Q 261.492 53.618 261.475 53.312 L 261.468 53.19 L 261.585 53.063 L 262.455 53.14 L 262.825 53.121 L 262.942 52.994 Q 262.932 52.812 261.929 52.56 L 262.014 51.827 L 262.008 51.706 L 261.878 51.591 Q 260.644 51.655 260.702 52.745 C 259.727 52.149 258.588 51.869 257.443 51.942 L 257.072 51.961 C 256.476 51.938 255.917 52.249 255.63 52.763 C 254.901 52.248 254.015 51.993 253.118 52.043 L 252.994 52.049 L 248.813 52.507 L 246.959 52.362 Z  M 238.44 55.104 Q 238.396 54.287 239.492 53.957 L 239.778 54.671 C 239.551 54.897 239.254 55.04 238.934 55.078 L 238.44 55.104 Z  M 252.03 54.769 L 253.161 55.076 L 253.167 55.197 C 252.885 55.801 252.29 56.204 251.615 56.249 L 251.602 56.006 L 252.18 55.248 L 251.92 55.019 L 251.914 54.898 L 252.03 54.769 Z  M 259.764 55.951 Q 259.824 55.341 260.102 55.326 L 260.595 55.301 Q 260.97 55.373 261.257 56.116 L 261.023 56.371 L 260.776 56.384 C 260.395 56.371 260.033 56.216 259.764 55.951 L 259.764 55.951 Z  M 240.876 56.68 L 240.869 56.558 L 242.862 56.82 L 243.109 56.808 C 243.512 56.797 243.898 56.648 244.2 56.387 L 244.227 56.875 Q 242.142 57.225 242.161 57.588 Q 241.389 57.628 240.875 56.678 L 240.876 56.68 Z  M 253.235 7.22 L 253.052 8.444 L 252.806 8.456 L 252.676 8.342 Q 252.501 7.38 252.254 7.393 L 251.884 7.412 L 251.768 7.539 C 251.78 8.194 251.899 8.843 252.121 9.461 L 253.455 9.028 L 253.975 9.487 L 253.981 9.608 L 252.76 9.914 L 252.013 9.831 L 252.162 12.616 L 260.312 12.318 Q 262.125 12.104 262.357 11.242 Q 262.604 11.229 263.149 12.173 L 264.253 11.995 L 282.766 11.164 C 285.405 10.98 288.031 10.642 290.629 10.152 L 291.032 10.739 L 293.37 10.497 Q 293.986 10.465 293.916 9.137 L 293.87 8.289 Q 292.863 5.061 290.858 5.165 L 289.994 5.209 C 289.293 5.332 288.629 5.615 288.059 6.037 Q 288.035 5.583 286.053 5.533 L 277.3 6.105 Q 276.229 7.62 275.77 7.644 L 276.062 6.171 L 269.52 6.508 L 253.235 7.22 Z  M 279.935 9.126 Q 280.047 8.391 280.266 8.38 Q 280.988 9.193 281.545 9.164 L 281.558 9.406 L 281.441 9.534 C 280.911 9.531 280.392 9.39 279.935 9.126 L 279.935 9.126 Z  M 276.871 9.647 L 278.251 10.062 L 279.231 9.891 L 279.517 10.604 L 279.283 10.859 L 279.16 10.865 Q 279.121 10.139 278.874 10.152 L 277.534 10.464 L 276.917 10.495 L 276.871 9.647 Z  M 268.298 13.611 C 266.688 13.662 265.085 13.826 263.499 14.101 Q 259.581 14.302 259.29 18.689 L 259.328 19.415 C 259.404 20.025 259.648 20.601 260.036 21.082 C 259.641 21.474 259.443 22.018 259.497 22.568 Q 259.785 24.496 260.093 24.48 Q 260.934 24.011 260.925 23.83 Q 260.897 23.314 259.996 22.663 L 259.977 22.3 C 260.416 22.281 260.84 22.132 261.192 21.873 L 261.315 21.867 Q 261.38 23.078 262.49 23.021 L 261.188 24.06 L 261.195 24.181 L 261.461 24.532 L 261.819 24.27 L 261.941 24.264 L 262.233 25.099 L 262.24 25.22 L 259.87 24.856 L 259.656 25.474 L 260.309 33.093 L 260.232 33.946 Q 261.35 34.04 261.361 34.253 Q 260.266 34.582 260.277 34.794 L 260.477 38.548 L 260.815 40.234 Q 260.568 40.247 260.509 41.464 L 260.794 42.178 L 261.282 42.032 Q 262.407 42.247 262.425 42.58 L 262.444 42.943 L 262.081 43.083 L 260.95 42.777 L 260.717 43.032 L 260.69 44.855 Q 260.859 45.696 261.105 45.684 C 261.465 45.127 262.012 44.712 262.651 44.511 L 263.028 44.613 L 263.034 44.734 L 260.872 45.938 Q 260.993 48.209 262.514 48.889 L 263.459 48.113 L 263.583 48.106 L 263.603 48.469 Q 262.747 48.662 262.765 48.998 Q 262.783 49.335 263.778 49.432 L 264.629 49.145 C 265.371 48.398 266.347 47.92 267.402 47.788 C 267.343 47.178 267.587 46.578 268.058 46.175 Q 268.039 45.842 266.927 45.869 L 265.622 44.604 L 265.499 44.61 Q 265.52 45.004 264.914 45.247 L 264.908 45.126 L 264.778 45.011 C 265.342 44.559 266.001 44.236 266.707 44.062 L 266.557 43.584 Q 266.869 42.475 267.363 42.45 L 267.862 42.545 L 267.986 42.539 L 267.954 41.934 L 267.39 36.011 L 267.553 34.424 Q 267.514 33.697 269.611 33.589 C 270.918 33.603 272.205 33.911 273.371 34.489 Q 277.171 36.722 277.695 36.696 L 277.715 37.059 L 277.591 37.065 L 276.845 36.983 L 276.721 36.989 L 276.605 37.116 L 276.617 37.358 Q 280.052 41.432 280.071 41.795 L 281.649 41.229 L 282.019 41.21 Q 280.818 41.879 280.863 42.727 L 280.876 42.969 C 280.868 44.023 281.658 44.918 282.722 45.06 L 282.624 45.551 Q 282.663 46.277 284.313 47.043 L 284.085 47.419 Q 284.095 47.6 285.105 47.973 L 285.91 46.839 L 286.527 46.807 L 286.819 47.641 L 288.14 46.966 Q 290.221 46.556 290.172 45.647 L 290.166 45.526 C 289.981 44.617 289.503 43.79 288.802 43.167 L 288.796 43.046 L 289.166 43.027 L 289.147 42.664 L 288.881 42.314 Q 287.137 42.13 287.119 41.798 L 287.82 41.032 L 287.801 40.669 L 287.658 40.312 Q 286.219 37.107 280.439 32.547 Q 280.634 31.565 280.881 31.553 L 281.127 31.54 L 281.523 32.005 Q 282.665 31.947 283.609 29.347 L 284.53 30.394 L 284.653 30.388 Q 284.869 30.377 284.991 29.763 C 287.257 28.012 288.461 25.25 288.187 22.432 L 288.142 21.577 Q 287.943 17.853 283.715 15.125 Q 281.188 12.948 268.298 13.611 Z  M 278.837 16.348 L 280.473 16.871 C 280.426 17.113 280.246 17.31 280.005 17.381 C 279.6 17.084 279.122 16.898 278.619 16.845 L 278.613 16.724 L 278.837 16.348 Z  M 280.187 18.465 Q 282.597 17.855 283.097 17.344 L 283.94 19.244 C 283.376 19.371 282.842 19.605 282.368 19.931 Q 282.315 18.932 280.194 18.586 L 280.187 18.465 Z  M 266.641 19.648 Q 270.811 18.978 270.778 18.341 L 270.901 18.335 L 270.927 18.819 Q 278.216 19.203 279.777 20.066 Q 279.838 21.217 281.355 21.807 Q 280.685 23.174 280.509 26.83 L 280.515 26.952 L 279.892 26.862 L 279.769 26.869 L 278.204 27.677 L 278.223 28.04 L 279.21 27.99 Q 279.162 28.235 278.62 28.506 L 276.62 28.123 L 276.386 28.378 L 276.392 28.499 L 276.782 28.843 L 276.905 28.837 L 276.801 29.206 L 276.808 29.328 L 278.161 29.258 L 278.55 29.602 L 278.557 29.723 L 277.434 29.538 L 277.064 29.557 L 276.83 29.812 L 276.843 30.054 Q 276.917 30.293 277.486 30.507 C 277.947 30.412 278.367 30.178 278.687 29.838 L 278.706 30.201 Q 278.752 31.049 279.986 30.985 C 279.827 31.369 279.453 31.626 279.032 31.641 L 277.174 31.616 Q 276.912 30.171 276.233 30.207 Q 275.864 30.225 275.876 30.467 L 275.941 31.679 L 275.448 31.704 L 275.467 32.067 L 275.727 32.297 L 276.318 31.781 L 276.564 31.768 Q 276.51 32.5 275.616 32.546 L 275.246 32.565 Q 274.753 32.59 274.513 30.416 L 274.501 30.174 L 274.623 30.167 L 274.754 30.283 L 275.123 30.263 C 275.687 30.19 276.178 29.846 276.431 29.346 C 275.717 28.703 274.752 28.398 273.79 28.511 L 267.381 28.962 L 267.264 28.968 C 267.108 28.054 266.81 27.168 266.381 26.342 Q 266.37 26.129 266.979 25.947 L 266.694 25.233 L 266.746 23.898 Q 266.72 23.413 266.35 23.433 C 266.699 22.409 266.851 21.33 266.798 20.252 L 266.641 19.648 Z  M 277.733 18.834 L 278.083 18.451 L 278.576 18.426 Q 279.502 18.379 279.583 18.738 L 279.219 18.879 L 277.733 18.834 Z  M 262.673 21.794 Q 263.122 20.314 264.2 20.258 L 264.446 20.246 C 263.816 20.875 263.46 21.721 263.456 22.605 Q 262.99 22.507 262.673 21.794 L 262.673 21.794 Z  M 262.036 26.078 Q 262.012 25.624 263.959 25.008 L 264.205 24.995 C 264.272 25.327 264.465 25.62 264.743 25.817 L 262.282 26.065 L 262.16 26.072 L 262.042 26.199 L 262.036 26.078 Z  M 284.965 26.841 C 285.508 26.19 286.279 25.761 287.127 25.637 L 287.25 25.63 L 287.257 25.752 L 287.14 25.88 Q 285.433 26.392 285.469 27.059 L 285.475 27.18 L 285.605 27.295 L 285.481 27.3 L 284.965 26.841 Z  M 261.653 28.162 Q 261.773 27.58 262.114 27.532 L 263.108 27.602 L 262.055 28.749 Q 261.838 28.761 261.652 28.162 L 261.653 28.162 Z  M 264.047 35.934 L 265.034 35.883 L 265.06 36.367 L 265.346 37.081 L 265.222 37.088 L 265.106 37.215 C 264.653 36.93 264.289 36.529 264.054 36.054 L 264.047 35.934 Z  M 260.928 40.1 L 261.162 39.845 L 261.285 39.838 Q 261.535 39.886 261.811 40.419 L 261.577 40.674 L 260.928 40.1 Z  M 263.933 45.411 L 264.057 45.404 C 264.412 45.537 264.666 45.85 264.719 46.221 Q 264.751 46.825 264.387 46.966 L 264.108 46.373 L 262.893 46.799 L 262.77 46.806 L 262.744 46.322 Q 263.979 46.258 263.934 45.413 L 263.933 45.411 Z  M 265.498 46.91 C 265.631 46.574 265.969 46.36 266.335 46.38 L 266.582 46.368 L 266.841 46.598 L 266.874 47.203 L 266.75 47.209 L 265.498 46.91 Z  M 287.323 50.161 L 271.569 51.7 L 270.209 51.648 L 270.222 51.891 L 271.748 52.662 L 271.514 52.917 L 271.144 52.935 L 270.366 52.247 Q 269.727 53.612 268.832 53.658 L 268.838 53.78 L 269.378 54.602 L 268.731 56.462 L 268.738 56.582 L 277.757 56.361 L 282.446 56.12 L 291.073 55.433 L 291.06 55.191 L 290.813 55.204 L 290.807 55.083 L 291.781 54.79 L 291.904 54.783 L 291.69 55.402 L 291.95 55.631 L 292.196 55.618 C 292.791 55.453 293.327 55.132 293.748 54.689 L 293.995 54.676 Q 294.04 55.524 295.273 55.46 L 295.89 55.428 L 296.124 55.173 L 295.937 51.661 L 295.677 51.432 C 295.357 51.469 295.059 51.614 294.833 51.839 L 294.71 51.846 L 294.45 51.616 L 294.443 51.494 L 294.56 51.367 Q 295.896 50.964 295.882 50.692 L 295.856 50.208 L 295.596 49.978 L 295.103 50.004 C 294.817 50.403 294.391 50.684 293.908 50.794 L 293.785 50.8 L 293.778 50.679 L 293.894 50.552 L 293.888 50.431 Q 293.861 49.914 289.415 50.054 L 287.323 50.161 Z  M 266.237 51.489 C 264.358 51.676 262.509 52.098 260.737 52.743 L 260.731 52.621 Q 260.716 52.348 261.939 52.073 L 261.926 51.831 L 254.4 52.218 L 254.166 52.473 L 254.186 52.836 L 254.633 56.578 L 254.548 57.311 L 254.555 57.432 L 254.684 57.547 L 255.171 57.401 L 259.619 57.293 Q 260.845 57.049 260.816 56.505 L 260.939 56.498 C 261.628 57.001 262.47 57.257 263.327 57.225 C 264.585 57.074 265.791 56.638 266.847 55.951 L 266.866 56.314 C 267.428 56.309 267.959 56.059 268.315 55.632 L 268.308 55.511 L 268.179 55.396 L 267.568 55.549 L 267.64 54.574 L 267.627 54.332 L 266.126 54.046 L 267.978 51.643 L 267.718 51.414 L 266.237 51.489 Z  M 255.711 53.609 Q 255.682 53.064 256.535 52.838 Q 257.895 52.889 257.909 53.132 L 255.83 53.603 L 255.711 53.609 Z  M 263.776 54.043 Q 263.765 53.832 264.38 53.77 L 264.503 53.763 L 264.191 54.873 Q 264.347 55.472 264.841 55.447 L 264.853 55.689 L 263.996 55.855 L 263.874 55.861 L 263.841 55.255 Q 263.822 54.892 262.959 54.937 Q 262.947 54.724 263.796 54.408 L 263.919 54.401 L 263.776 54.043 Z  M 270.971 54.402 L 272.446 54.205 Q 273.062 54.173 273.205 54.53 C 272.72 55.024 272.088 55.356 271.399 55.477 L 271.275 55.484 L 270.971 54.402 Z  M 285.066 5.582 L 284.832 5.837 L 284.923 7.535 L 285.104 8.619 L 285.026 9.471 L 285.091 10.682 Q 285.1 10.864 285.603 11.02 L 288.434 10.753 L 289.434 10.944 L 289.668 10.69 L 289.656 10.447 Q 288.662 10.377 288.65 10.135 L 290.254 10.053 L 290.487 9.798 Q 290.466 9.404 288.468 9.052 Q 288.454 8.81 289.311 8.644 Q 290.805 8.81 290.851 9.659 L 290.279 10.538 L 290.286 10.659 L 292.753 10.532 L 292.87 10.404 C 292.482 9.637 291.987 8.927 291.4 8.294 L 288.153 7.732 L 288.03 7.739 Q 287.718 8.848 287.471 8.861 Q 287.433 8.134 287.062 8.153 L 285.709 8.223 C 285.957 7.898 286.107 7.512 286.144 7.107 L 286.39 7.095 L 287.287 7.656 L 287.643 7.394 L 286.744 6.832 L 286.738 6.711 L 286.854 6.584 L 288.221 6.756 L 288.344 6.75 Q 288.56 6.738 288.799 5.998 C 289.304 6.121 289.778 6.344 290.191 6.655 Q 292.459 9.089 293.663 9.026 L 293.786 9.02 L 294.019 8.766 L 293.111 7.962 L 293.105 7.841 L 295.929 7.453 L 296.053 7.447 L 295.819 7.702 L 296.13 8.899 L 296.863 8.74 L 296.986 8.734 C 296.723 9.004 296.566 9.356 296.544 9.729 L 296.557 9.971 L 296.824 10.322 L 296.941 10.194 L 299.921 10.405 L 300.414 10.379 Q 300.507 9.282 300.726 9.27 L 300.85 9.264 L 301.233 9.487 L 302.207 9.194 L 302.213 9.315 L 302.344 9.429 Q 302.353 9.611 301.869 9.818 L 302.129 10.047 L 303.24 9.99 L 303.473 9.735 L 303.409 8.525 L 304.285 8.723 L 304.655 8.703 C 305.084 8.266 305.621 7.946 306.214 7.773 L 306.83 7.742 L 306.811 7.379 L 306.286 6.799 L 306.279 6.675 L 307.136 6.509 L 307.259 6.503 C 307.815 6.46 308.333 6.778 308.538 7.287 Q 306.659 7.384 304.097 9.823 L 304.103 9.944 L 304.226 9.937 L 304.343 9.81 L 305.577 9.747 L 313.856 9.564 L 313.98 9.557 C 315.699 9.517 317.398 9.183 318.999 8.57 C 319.612 9.125 320.438 9.392 321.265 9.304 L 322.5 9.24 L 322.733 8.986 L 322.527 5.11 C 322.549 4.595 322.39 4.089 322.079 3.675 L 319.618 3.923 L 318.878 3.961 L 307.638 4.297 L 307.268 4.316 C 305.003 4.376 302.767 4.819 300.657 5.628 Q 300.621 4.963 299.252 4.729 L 298.635 4.76 L 297.908 5.041 L 294.909 6.774 Q 293.888 5.612 293.61 5.626 L 293.396 6.244 L 293.026 6.263 L 293.247 5.766 L 292.228 5.212 L 291.485 5.25 L 290.54 6.152 Q 290.501 5.425 287.897 5.317 L 285.56 5.559 L 285.066 5.582 Z  M 291.144 5.876 L 291.507 5.737 L 292.893 6.272 Q 292.938 7.12 293.678 7.081 L 293.684 7.203 C 293.347 7.268 293.048 7.457 292.847 7.731 L 292.599 7.745 L 292.592 7.623 Q 291.173 6.452 291.142 5.876 L 291.144 5.876 Z  M 298.442 5.865 L 299.039 5.471 L 299.286 5.458 L 300.065 6.146 L 298.98 6.687 L 298.448 5.987 L 298.442 5.865 Z  M 297.981 6.496 L 298.858 6.694 L 298.864 6.815 L 298.5 6.955 Q 298.514 7.197 298.883 7.178 L 298.896 7.42 L 298.403 7.446 C 298.116 7.349 297.882 7.142 297.754 6.872 L 297.981 6.496 Z  M 318.163 6.79 Q 318.104 5.7 319.445 5.391 Q 319.661 5.38 319.847 5.978 Q 319.833 6.282 318.283 6.787 L 318.163 6.79 Z  M 299.403 7.634 C 299.581 7.195 299.996 6.891 300.475 6.85 L 300.722 6.837 C 300.426 7.239 300.238 7.707 300.176 8.198 L 300.053 8.204 Q 300.027 7.72 299.411 7.752 L 299.403 7.634 Z  M 295.156 9.185 C 294.836 9.223 294.538 9.367 294.312 9.593 L 295.332 10.147 L 295.578 10.135 L 295.812 9.88 L 295.793 9.517 L 295.404 9.172 L 295.156 9.185 Z  M 311.882 11.968 C 310.519 12.057 309.164 12.248 307.83 12.541 L 307.843 12.783 L 308.479 13.115 L 308.245 13.37 L 307.876 13.388 C 307.29 13.399 306.767 13.031 306.59 12.483 L 306.343 12.496 Q 306.369 12.98 305.629 13.019 C 304.949 12.746 304.231 12.579 303.5 12.521 C 302.637 12.559 301.8 12.812 301.064 13.253 C 299.634 12.959 298.174 12.831 296.714 12.87 L 295.109 12.953 Q 291.963 13.115 291.043 15.59 Q 291.131 16.072 291.44 16.056 L 292.55 15.999 L 292.667 15.871 Q 293.43 16.257 293.446 16.56 L 292.965 16.827 L 291.586 16.413 L 291.092 16.438 L 290.859 16.693 L 292.015 17.483 L 292.034 17.846 Q 290.894 18.512 290.852 18.879 L 291.337 25.656 L 291.499 28.683 L 291.453 30.143 L 292.336 30.462 L 292.459 30.455 Q 294.568 27.675 295.401 27.632 L 295.395 27.519 L 294.745 26.945 L 294.739 26.824 Q 295.479 26.786 295.466 26.543 C 295.306 26.274 295.017 26.106 294.7 26.098 L 294.693 25.976 L 294.817 25.97 Q 296.325 26.41 296.389 27.592 L 296.407 27.955 C 296.386 28.363 296.234 28.753 295.973 29.071 L 294.593 28.656 L 293.86 28.815 Q 293.273 31.153 292.748 31.18 L 292.493 31.193 L 291.623 31.117 L 291.63 31.237 L 291.513 31.365 L 291.552 32.091 L 292.019 33.889 L 291.843 35.231 L 291.85 35.352 L 293.593 35.505 C 294.722 35.335 295.828 35.033 296.885 34.607 L 296.879 34.486 L 296.619 34.256 C 296.624 33.819 296.828 33.407 297.177 33.134 L 297.548 33.116 L 298.45 33.797 L 298.917 33.288 L 298.859 32.197 L 299.092 31.942 L 301.436 31.822 L 308.703 31.205 L 311.306 31.314 L 311.3 31.193 L 311.138 30.473 Q 311.09 29.565 312.678 29.179 L 312.924 29.166 Q 311.87 30.283 311.904 30.921 L 311.91 31.043 L 312.17 31.272 L 313.523 31.202 Q 316.731 31.037 316.603 28.615 L 316.596 28.494 C 316.562 28.009 316.363 27.55 316.032 27.19 Q 314.429 25.57 310.635 25.765 C 308.668 25.919 306.734 26.346 304.888 27.033 L 304.902 27.275 C 305.536 27.258 306.168 27.348 306.772 27.543 L 306.778 27.664 L 306.531 27.677 Q 306.182 28.667 305.967 28.678 L 305.72 28.69 L 305.59 28.576 L 305.583 28.454 L 305.701 28.327 L 305.687 28.086 L 304.282 27.187 L 304.386 26.817 L 304.38 26.696 L 303.282 26.995 C 302.104 26.667 300.889 26.484 299.665 26.453 L 298.925 26.491 L 298.808 26.618 Q 298.235 28.59 297.431 28.632 L 297.307 28.639 C 297.877 27.605 298.237 26.472 298.367 25.304 C 298.295 24.449 297.995 23.627 297.498 22.92 Q 298.485 22.869 298.427 21.779 L 298.025 18.885 Q 297.98 18.038 300.077 17.93 L 305.772 18.001 L 306.018 17.989 C 306.976 17.953 307.903 17.653 308.694 17.122 L 308.818 17.116 C 308.844 17.249 308.806 17.385 308.714 17.486 C 308.621 17.586 308.487 17.637 308.35 17.626 L 308.363 17.868 L 313.305 17.735 Q 316.759 17.558 317.136 15.352 L 317.13 15.231 Q 315.957 15.291 315.546 13.369 L 315.532 13.127 L 315.779 13.114 L 316.416 13.446 L 316.649 13.191 L 316.642 13.07 Q 315.932 11.922 311.882 11.975 L 311.882 11.968 Z  M 292.336 14.306 C 292.722 13.849 293.303 13.594 293.908 13.618 L 296.154 13.988 L 296.161 14.11 L 295.55 14.262 L 292.461 14.3 L 292.336 14.306 Z  M 305.648 13.379 L 307.278 13.781 L 307.284 13.901 L 307.051 14.156 L 305.427 13.875 L 305.421 13.752 L 305.648 13.379 Z  M 301.92 15.392 L 302.53 15.239 L 303.271 15.202 Q 303.64 15.182 303.673 15.788 L 303.92 15.775 L 303.906 15.532 L 304.03 15.525 L 304.036 15.647 C 303.71 16.12 303.177 16.417 302.594 16.449 Q 302.42 15.487 301.926 15.513 L 301.92 15.392 Z  M 293.284 18.151 L 294.03 18.235 L 294.154 18.228 L 294.27 18.101 L 294.452 19.185 Q 293.324 18.939 293.309 18.636 L 293.284 18.151 Z  M 295.653 30.053 Q 296.362 30.017 298.296 28.585 L 298.932 28.916 Q 298.945 29.158 297.965 29.33 C 297.945 29.69 298.162 30.021 298.504 30.153 L 299.491 30.102 L 299.504 30.344 Q 299.455 30.589 298.914 30.86 L 297.553 30.808 L 297.43 30.815 L 297.313 30.942 L 297.592 31.535 L 297.598 31.655 L 296.355 31.477 L 296.361 31.598 L 296.244 31.726 L 296.276 32.331 L 295.394 32.012 L 295.42 30.189 L 295.413 30.068 L 295.653 30.053 Z  M 306.238 29.023 L 306.601 28.883 L 308.247 29.648 L 308.37 29.642 Q 308.413 30.459 307.194 30.796 L 307.071 30.802 L 307.064 30.681 L 307.253 29.578 Q 307.077 29.101 306.24 29.144 L 306.238 29.023 Z  M 297.374 29.844 C 296.75 29.849 296.167 30.151 295.809 30.652 L 295.822 30.894 L 296.81 30.844 Q 297.426 30.812 297.529 30.442 L 297.504 29.958 L 297.374 29.844 Z  M 298.12 34.543 Q 297.284 35.679 294.723 35.811 L 293.489 35.874 C 292.945 35.928 292.395 35.874 291.872 35.715 L 291.879 35.836 L 291.762 35.963 L 291.794 36.569 L 292.443 37.142 C 292.1 38.209 291.95 39.327 292.001 40.445 L 292.085 42.019 C 292.194 43.281 292.427 44.53 292.778 45.748 Q 292.888 47.808 298.934 47.497 L 301.155 47.382 C 302.86 47.297 304.549 47.006 306.181 46.516 C 308.525 46.827 310.889 46.949 313.253 46.881 L 314.983 46.792 Q 319.67 46.551 319.49 43.159 L 319.334 42.56 Q 318.021 40.564 313.057 40.819 L 309.356 41.009 L 309.012 41.512 L 309.019 41.633 L 307.031 41.493 L 306.538 41.518 Q 305.582 41.568 305.453 42.06 C 303.833 41.647 302.15 41.528 300.486 41.708 C 299.595 41.766 298.787 41.197 298.558 40.35 Q 299.27 39.795 299.13 37.162 L 299 34.74 L 298.741 34.511 L 298.12 34.543 Z  M 294.254 40.936 Q 294.144 38.877 296.119 38.775 Q 295.736 40.859 294.378 40.929 L 294.254 40.936 Z  M 298.611 43.746 L 298.975 43.606 L 299.975 43.798 Q 298.961 45.672 298.591 45.69 L 298.462 45.576 L 298.923 44.945 L 298.883 44.217 L 298.618 43.867 L 298.611 43.746 Z  M 312.403 44.859 L 313.013 44.706 L 313.507 44.681 L 313.552 45.535 L 313.818 45.886 L 313.825 46.007 L 313.455 46.026 C 313.017 45.723 312.657 45.325 312.401 44.863 L 312.403 44.859 Z  M 323.233 48.431 C 321.902 48.668 320.626 49.145 319.473 49.839 L 319.35 49.845 Q 319.337 49.603 320.07 49.445 L 320.044 48.96 L 310.901 49.187 C 308.633 49.331 306.375 49.609 304.142 50.021 L 304.155 50.263 L 304.524 50.244 L 304.537 50.486 L 304.174 50.627 C 303.866 50.468 303.518 50.402 303.173 50.437 L 303.167 50.316 L 303.393 49.941 L 303.381 49.698 L 303.251 49.583 L 302.147 49.762 L 300.536 49.723 Q 298.439 49.831 297.621 50.723 L 297.498 50.729 L 296.465 49.933 L 296.218 49.946 Q 296.276 51.036 293.932 51.157 L 293.686 51.169 Q 293.501 51.179 293.147 50.347 L 293.27 50.341 L 293.011 50.111 L 287.459 50.397 L 287.225 50.652 L 287.406 54.043 Q 287.416 54.225 288.296 54.483 C 289.352 54.055 290.458 53.754 291.588 53.586 L 291.958 53.567 C 293.018 53.445 294.078 53.791 294.854 54.511 C 293.748 54.298 292.623 54.193 291.496 54.198 L 290.879 54.23 C 289.723 54.336 288.603 54.684 287.594 55.248 L 287.607 55.49 L 293.672 55.543 L 309.334 54.615 L 309.458 54.609 C 309.857 53.927 310.574 53.482 311.373 53.42 L 311.496 53.414 L 311.509 53.656 Q 310.172 54.029 310.188 54.331 L 310.194 54.452 L 310.324 54.567 L 310.447 54.561 L 310.565 54.433 L 311.552 54.383 L 313.538 54.523 L 313.785 54.511 C 314.188 54.526 314.541 54.25 314.616 53.861 L 314.344 53.389 L 314.337 53.268 Q 314.888 53.149 315.721 51.375 Q 316.539 51.636 316.617 51.936 L 316.623 52.057 L 315.889 52.216 L 315.902 52.458 L 316.526 52.548 L 320.474 52.345 L 321.701 52.16 Q 321.753 53.128 322.864 53.072 L 322.883 53.435 L 322.52 53.576 Q 321.903 53.607 320.981 52.561 L 320.856 52.568 L 320.74 52.695 L 320.396 53.199 L 320.026 53.218 L 319.253 52.65 Q 319.007 52.663 319.039 53.268 L 318.052 53.319 L 317.578 53.708 Q 317.612 54.343 325.02 54.053 L 325.247 53.678 L 325.228 53.308 L 324.696 50.301 L 324.891 49.32 C 324.539 48.754 323.906 48.415 323.231 48.432 L 323.233 48.431 Z  M 295.914 51.169 L 297.012 50.87 L 297.135 50.863 L 297.265 50.978 L 296.674 51.494 L 297.102 52.566 L 297.108 52.686 Q 295.712 51.939 295.671 51.182 L 295.914 51.169 Z  M 308.336 52.109 Q 308.32 51.806 309.056 51.707 Q 309.168 50.973 309.388 50.962 L 309.634 50.95 Q 310.873 50.977 310.907 51.612 L 310.914 51.741 L 309.678 51.805 L 308.344 52.238 L 308.336 52.109 Z  M 298.535 53.956 Q 298.512 53.532 299.856 53.281 L 300.103 53.268 L 300.492 53.612 L 300.505 53.855 L 298.535 53.956 Z  M 300.892 54.077 C 300.956 53.749 301.265 53.521 301.605 53.553 L 302.592 53.502 L 302.599 53.624 Q 302.526 53.991 301.878 54.024 L 300.892 54.077 Z  M 313.248 53.806 L 313.612 53.666 L 313.858 53.653 L 313.508 54.035 L 313.248 53.806 Z  M 330.751 3.353 L 314.343 4.198 L 314.226 4.325 L 314.505 7.226 L 314.504 9.533 L 314.633 9.648 L 314.751 9.52 L 320.556 9.344 L 322.523 9.12 L 322.51 8.875 Q 321.757 8.671 321.744 8.428 L 321.725 8.065 Q 323.597 8.363 324.134 9.156 L 324.991 8.991 L 340.043 8.216 L 355.103 7.568 L 355.096 7.447 L 355.213 7.319 L 354.942 2.233 L 353.968 2.525 L 350.493 2.34 L 349.877 2.372 C 349.441 2.407 349.022 2.554 348.662 2.798 L 349.084 3.748 L 349.097 3.991 Q 348.388 4.027 347.538 2.613 L 338.773 2.943 C 337.908 2.967 337.067 3.22 336.338 3.675 C 335.942 3.28 335.385 3.085 334.825 3.146 L 333.961 3.19 Q 331.268 3.724 331.299 4.3 L 331.175 4.306 Q 331 3.341 330.752 3.353 L 330.751 3.353 Z  M 321.796 4.786 L 322.92 4.971 L 322.927 5.092 L 322.472 5.844 L 322.226 5.856 Q 321.948 5.871 321.817 5.149 L 321.796 4.786 Z  M 316.2 6.534 L 317.298 6.235 L 317.344 7.083 L 316.48 7.127 L 316.221 6.897 L 316.2 6.534 Z  M 343.525 6.222 L 344.827 5.184 L 345.106 5.777 C 344.794 6.189 344.307 6.438 343.784 6.452 L 343.525 6.222 Z  M 346.641 6.669 L 348.219 6.102 L 348.264 6.949 L 347.771 6.975 L 346.404 6.802 Q 346.034 6.821 346.073 7.548 L 345.827 7.56 L 345.697 7.446 L 345.899 6.585 L 346.522 6.675 L 346.641 6.669 Z  M 329.05 8.536 Q 329.652 7.655 330.115 7.631 L 330.621 7.848 Q 330.654 8.454 329.543 8.51 L 329.05 8.536 Z  M 341.393 10.33 L 337.575 10.648 L 335.971 10.73 L 334.496 10.928 L 334.49 10.807 L 334.12 10.826 Q 334.176 11.886 332.95 12.1 L 332.672 11.507 L 330.269 12.846 L 330.146 12.853 L 330.25 12.483 Q 330.233 12.18 329.212 11.565 L 329.439 11.19 L 329.432 11.068 L 329.315 11.195 L 324.496 11.322 C 323.368 11.385 322.255 11.607 321.19 11.978 Q 320.234 12.667 320.33 14.453 L 320.356 14.938 Q 320.419 15.541 320.635 15.53 Q 320.714 17.014 325.043 17.006 L 326.647 16.923 Q 330.904 16.705 331.739 17.269 L 332.275 29.629 C 332.433 31.375 332.732 33.106 333.17 34.806 C 332.858 35.63 332.695 36.501 332.689 37.38 C 332.729 38.309 333.182 39.174 333.929 39.745 L 333.435 39.771 Q 332.696 39.809 332.747 40.778 L 332.786 41.505 Q 332.972 44.987 336.727 45.795 L 337.22 45.77 C 338.147 45.611 338.968 45.088 339.493 44.321 L 339.234 44.091 L 338.617 44.123 L 337.045 44.811 L 336.922 44.817 L 337.383 44.187 Q 337.368 43.914 336.746 43.855 L 336.74 43.734 L 337.11 43.715 L 339.837 43.817 Q 340.454 43.785 340.357 41.969 C 340.286 41.494 340.092 41.045 339.793 40.666 Q 340.162 40.646 340.149 40.404 L 340.072 38.951 L 339.942 38.836 L 338.844 39.135 C 338.52 39.155 338.216 38.978 338.079 38.689 L 338.072 38.568 L 338.195 38.562 L 338.326 38.676 L 338.448 38.67 L 340.027 38.103 L 338.876 16.546 L 339.006 16.661 L 341.577 16.164 Q 342.719 16.106 342.84 14.397 C 343.783 14.853 344.806 15.131 345.853 15.213 L 345.86 15.335 Q 344.904 15.384 344.775 15.876 L 344.781 15.997 L 345.041 16.227 L 345.91 16.182 Q 348.374 15.994 348.346 15.449 L 348.338 15.319 L 347.601 15.357 L 346.744 15.522 L 346.737 15.401 L 346.491 15.414 L 346.477 15.172 L 347.088 15.019 L 348.965 15.408 C 349.765 14.757 350.252 13.807 350.31 12.789 L 350.29 12.426 Q 350.154 9.885 341.394 10.336 L 341.393 10.33 Z  M 336.835 12.993 Q 336.77 11.782 339.322 10.922 Q 338.366 13.886 337.133 13.95 L 336.763 13.969 L 336.756 13.848 L 337.12 13.708 L 336.835 12.993 Z  M 333.139 13.305 Q 333.128 13.093 333.737 12.91 L 335.109 13.203 Q 335.142 13.809 334.031 13.866 L 333.785 13.879 L 333.876 13.267 L 333.139 13.305 Z  M 345.419 13.888 C 345.742 13.394 346.263 13.058 346.854 12.965 L 347.23 13.067 Q 346.388 14.082 345.928 14.105 L 345.419 13.888 Z  M 327.846 16.124 Q 328.33 14.767 329.379 14.713 Q 329.947 14.927 330.022 15.165 L 330.035 15.408 L 329.295 15.446 C 328.937 15.802 328.475 16.038 327.974 16.121 L 327.846 16.124 Z  M 334.441 16.757 Q 335.304 16.713 335.343 17.439 L 335.128 18.057 L 335.258 18.172 Q 337.372 18.367 337.401 18.912 L 337.167 19.166 C 336.46 18.607 335.556 18.348 334.655 18.446 L 334.882 18.07 L 334.447 16.878 L 334.441 16.757 Z  M 334.362 19.92 L 334.485 19.913 L 336.634 20.774 Q 336.585 21.02 336.044 21.29 L 334.677 21.118 L 334.768 20.506 L 334.755 20.264 Q 334.742 20.022 334.372 20.041 L 334.362 19.92 Z  M 334.634 22.699 L 336.396 23.215 L 336.402 23.336 L 335.182 23.642 L 335.058 23.648 L 335.051 23.526 L 335.298 23.514 L 335.286 23.272 Q 335.266 22.908 334.526 22.947 L 334.52 22.826 L 334.634 22.699 Z  M 335.225 24.49 L 335.594 24.471 L 337.744 25.333 L 337.769 25.817 L 337.652 25.944 L 336.653 25.752 L 336.419 26.007 C 335.779 25.81 335.314 25.265 335.231 24.611 L 335.225 24.49 Z  M 334.684 32.9 L 335.301 32.868 Q 336.061 33.801 336.34 33.787 L 335.989 34.169 C 335.459 34.166 334.939 34.026 334.483 33.761 L 334.684 32.9 Z  M 336.794 35.341 L 338.034 35.399 L 337.814 35.896 L 336.573 35.838 L 336.794 35.341 Z  M 334.19 37.54 L 334.54 37.158 L 336.637 37.05 L 336.657 37.414 Q 335.176 37.49 335.209 38.095 C 334.992 37.746 334.602 37.538 334.186 37.547 L 334.19 37.54 Z  M 329.939 48.325 L 316.991 49.113 Q 316.621 49.132 316.633 49.374 L 316.685 50.343 C 316.721 51.131 317.022 51.884 317.542 52.485 Q 316.802 52.523 316.821 52.887 L 316.892 54.215 L 317.152 54.445 L 318.262 54.387 Q 325.017 54.04 329.229 53.581 L 332.573 53.651 Q 332.786 52.425 333.002 52.414 L 333.249 52.402 L 333.255 52.523 L 333.028 52.898 L 333.054 53.383 L 333.313 53.612 L 334.794 53.536 Q 336.028 53.473 335.983 52.626 C 336.507 52.983 337.115 53.203 337.751 53.263 C 338.216 53.261 338.615 52.935 338.7 52.485 L 339.089 52.83 L 338.862 53.206 L 338.869 53.338 L 357.375 52.386 L 357.609 52.132 L 357.57 51.405 C 357.572 50.919 357.247 50.491 356.772 50.353 L 357.357 49.716 L 357.168 48.511 L 357.227 47.292 Q 350.175 47.291 343.76 47.621 C 340.903 47.681 338.061 48.031 335.279 48.665 C 333.51 48.419 331.724 48.308 329.937 48.333 L 329.939 48.325 Z  M 333.179 48.765 Q 335.192 49.391 335.212 49.754 L 335.219 49.875 L 335.095 49.881 L 334.089 49.569 L 333.738 49.952 Q 333.396 49.908 333.194 49.008 L 333.179 48.765 Z  M 329.066 50.563 Q 329.042 50.109 330.255 49.652 L 330.379 49.646 C 330.217 50.088 329.939 50.479 329.574 50.782 L 329.45 50.788 L 329.066 50.563 Z  M 321.93 51.295 L 322.053 51.288 L 322.222 52.13 L 322.235 52.372 L 321.865 52.39 Q 321.339 51.811 320.969 51.83 L 320.963 51.709 L 321.085 51.702 L 321.585 51.798 Q 321.956 51.779 321.93 51.296 L 321.93 51.295 Z  M 329.788 52.473 L 330.138 52.091 L 330.385 52.079 Q 331.738 52.008 331.758 52.372 L 331.764 52.493 Q 331.776 52.705 331.167 52.888 Q 329.802 52.742 329.788 52.473 Z  M 347.717 2.484 L 347.6 2.611 L 347.801 4.059 L 347.95 6.844 Q 347.997 7.722 348.372 7.794 L 351.209 7.648 C 351.921 7.648 352.61 7.397 353.151 6.942 Q 353.276 7.542 353.553 7.528 L 365.767 6.9 C 366.319 6.209 367.166 5.807 368.06 5.81 L 368.072 6.052 Q 366.6 6.28 366.618 6.613 L 366.877 6.843 L 369.96 6.684 L 371.217 4.797 L 371.341 4.791 L 371.49 5.269 Q 371.503 5.511 370.678 6.282 L 370.685 6.404 L 380.944 6.24 C 384.408 6.114 387.861 5.774 391.282 5.222 L 390.698 1.245 L 390.777 0.391 L 390.77 0.27 L 351.173 2.428 L 347.717 2.484 Z  M 360.588 2.55 L 361.327 2.512 Q 361.543 2.501 361.736 3.22 Q 361.443 4.084 361.165 4.099 L 360.918 4.112 L 360.788 3.996 L 360.879 3.385 L 360.854 2.905 L 360.588 2.55 Z  M 373.731 3.089 L 374.581 2.803 L 374.588 2.923 Q 376.348 3.41 376.375 3.925 Q 373.76 3.604 373.739 3.211 L 373.731 3.089 Z  M 366.736 8.793 L 366.379 9.054 Q 366.482 10.992 365.128 11.062 L 365.005 11.068 L 364.992 10.826 Q 365.939 10.019 365.908 9.446 L 365.902 9.325 L 365.773 9.211 C 363.313 9.341 360.968 10.274 359.11 11.861 Q 352.987 17.671 353.483 26.968 L 353.548 28.179 C 353.716 32.213 355.179 36.091 357.727 39.26 Q 361.326 42.353 362.961 42.269 L 363.084 42.263 L 362.98 42.633 L 362.993 42.875 Q 363.922 44.072 372.597 44.324 Q 376.822 44.106 377.805 42.234 L 377.799 42.113 L 377.182 42.145 L 376.918 41.905 L 376.912 41.784 L 377.14 41.408 L 377.126 41.166 L 376.997 41.052 L 377.484 40.905 C 378.781 40.882 380.077 41.019 381.341 41.313 C 382.041 41.094 382.663 40.683 383.133 40.127 Q 388.286 34.67 387.773 25.072 C 387.675 22.555 387.123 20.075 386.145 17.747 Q 384.889 17.416 384.872 17.084 L 385.339 16.574 L 385.32 16.211 Q 380.833 8.062 368.712 8.686 L 366.736 8.793 Z  M 368.411 10.039 L 369.398 9.988 Q 370.014 9.956 370.158 10.314 L 370.17 10.556 C 370.046 10.898 369.702 11.116 369.333 11.085 L 368.469 11.129 L 368.411 10.039 Z  M 359.513 14.869 C 359.72 14.382 360.171 14.036 360.702 13.958 L 361.072 13.939 Q 361.117 14.787 359.637 14.863 L 359.513 14.869 Z  M 360.653 26.955 C 360.564 25.018 360.794 23.078 361.336 21.212 Q 363.3 14.553 369.871 14.215 L 369.994 14.209 Q 376.07 13.896 378.947 19.699 L 379.675 19.419 L 379.921 19.406 L 379.752 20.873 L 380.599 27.508 L 380.638 28.235 L 380.514 30.549 C 380.502 30.683 380.555 30.815 380.657 30.905 C 380.759 30.996 380.898 31.034 381.033 31.008 L 381.04 31.128 Q 378.992 32.175 379.091 34.022 L 379.111 34.385 L 379.24 34.5 Q 376.488 36.251 376.558 37.553 L 376.052 37.336 Q 373.966 37.656 374.032 38.898 Q 369.128 39.15 362.988 35.944 L 363.19 35.083 L 363.183 34.962 L 362.086 32.954 L 358.203 34.369 L 358.079 34.375 C 358.759 33.517 359.745 32.945 360.839 32.775 L 361.702 32.731 L 361.819 32.604 C 361.173 30.781 360.781 28.881 360.653 26.955 L 360.653 26.955 Z  M 380.213 17.933 Q 380.192 17.54 381.422 17.385 L 383.164 17.538 L 383.17 17.66 L 381.473 18.355 L 380.213 17.933 Z  M 354.244 25.099 Q 354.404 24.605 354.588 24.596 L 354.712 24.59 Q 355.713 25.388 356.111 25.367 L 356.117 25.489 L 356 25.616 L 354.244 25.099 Z  M 358.121 25.871 L 358.244 25.866 L 359.277 26.662 L 359.043 26.917 L 357.689 26.986 L 357.56 26.872 L 357.664 26.502 Q 358.135 26.141 358.121 25.871 L 358.121 25.871 Z  M 379.663 40.067 Q 379.647 39.764 380.384 39.665 L 381.001 39.634 L 381.26 39.863 L 381.28 40.226 L 381.033 40.239 L 380.034 40.048 L 379.787 40.06 L 379.67 40.187 L 379.663 40.067 Z  M 358.745 46.85 Q 349.99 47.392 350.011 47.786 L 350.328 51.412 L 350.263 52.51 L 350.769 52.726 L 365.074 51.869 L 365.938 51.824 C 366.261 51.311 366.77 50.938 367.363 50.78 Q 367.988 50.896 367.999 51.112 Q 368.019 51.475 367.526 51.5 L 367.538 51.742 L 372.604 51.481 L 392.718 50.568 Q 393.575 50.403 393.562 50.16 L 393.53 49.555 L 393.265 46.897 L 393.31 45.437 L 393.168 45.08 L 393.051 45.208 L 382.681 45.62 C 381.131 45.597 379.607 46.014 378.291 46.817 L 377.798 46.843 L 376.882 45.919 L 374.792 46.147 L 358.745 46.85 Z  M 366.057 49.389 Q 366.041 49.087 367.265 48.841 L 367.278 49.084 C 367.128 49.475 366.749 49.735 366.324 49.74 L 366.077 49.753 L 366.057 49.389 Z " fill="rgb(255,0,0)"/></g></g></g></svg>